<?xml version="1.0" encoding="utf-8" standalone="no"?>
<!DOCTYPE svg PUBLIC "-//W3C//DTD SVG 1.1//EN"
  "http://www.w3.org/Graphics/SVG/1.1/DTD/svg11.dtd">
<svg height="432pt" version="1.1" viewBox="0 0 864 432" width="864pt" xmlns="http://www.w3.org/2000/svg" xmlns:xlink="http://www.w3.org/1999/xlink">
 <metadata>
  <rdf:RDF xmlns:cc="http://creativecommons.org/ns#" xmlns:dc="http://purl.org/dc/elements/1.1/" xmlns:rdf="http://www.w3.org/1999/02/22-rdf-syntax-ns#">
   <cc:Work>
    <dc:type rdf:resource="http://purl.org/dc/dcmitype/StillImage"/>
    <dc:date>2021-06-07T17:07:48.789219</dc:date>
    <dc:format>image/svg+xml</dc:format>
    <dc:creator>
     <cc:Agent>
      <dc:title>Matplotlib v3.4.1, https://matplotlib.org/</dc:title>
     </cc:Agent>
    </dc:creator>
   </cc:Work>
  </rdf:RDF>
 </metadata>
 <defs>
  <style type="text/css">*{stroke-linecap:butt;stroke-linejoin:round;}</style>
 </defs>
 <g id="figure_1">
  <g id="patch_1">
   <path d="M 0 432 
L 864 432 
L 864 0 
L 0 0 
z
" style="fill:#ffffff;"/>
  </g>
  <g id="axes_1">
   <g id="patch_2">
    <path d="M 157.57 390.04 
L 488.485083 390.04 
L 488.485083 52.08 
L 157.57 52.08 
z
" style="fill:#ffffff;"/>
   </g>
   <g id="patch_3">
    <path clip-path="url(#pc323cc410f)" d="M 349.165037 374.678182 
L 349.165037 374.678182 
L 349.165037 355.475909 
L 349.165037 355.475909 
z
" style="fill:#008000;"/>
   </g>
   <g id="patch_4">
    <path clip-path="url(#pc323cc410f)" d="M 349.165037 350.675341 
L 349.165037 350.675341 
L 349.165037 331.473068 
L 349.165037 331.473068 
z
" style="fill:#008000;"/>
   </g>
   <g id="patch_5">
    <path clip-path="url(#pc323cc410f)" d="M 349.165037 326.6725 
L 349.165037 326.6725 
L 349.165037 307.470227 
L 349.165037 307.470227 
z
" style="fill:#008000;"/>
   </g>
   <g id="patch_6">
    <path clip-path="url(#pc323cc410f)" d="M 349.165037 302.669659 
L 451.093848 302.669659 
L 451.093848 283.467386 
L 349.165037 283.467386 
z
" style="fill:#008000;"/>
   </g>
   <g id="patch_7">
    <path clip-path="url(#pc323cc410f)" d="M 349.165037 278.666818 
L 452.425058 278.666818 
L 452.425058 259.464545 
L 349.165037 259.464545 
z
" style="fill:#008000;"/>
   </g>
   <g id="patch_8">
    <path clip-path="url(#pc323cc410f)" d="M 349.165037 254.663977 
L 452.654114 254.663977 
L 452.654114 235.461705 
L 349.165037 235.461705 
z
" style="fill:#008000;"/>
   </g>
   <g id="patch_9">
    <path clip-path="url(#pc323cc410f)" d="M 349.165037 230.661136 
L 453.647521 230.661136 
L 453.647521 211.458864 
L 349.165037 211.458864 
z
" style="fill:#008000;"/>
   </g>
   <g id="patch_10">
    <path clip-path="url(#pc323cc410f)" d="M 349.165037 206.658295 
L 454.231566 206.658295 
L 454.231566 187.456023 
L 349.165037 187.456023 
z
" style="fill:#008000;"/>
   </g>
   <g id="patch_11">
    <path clip-path="url(#pc323cc410f)" d="M 349.165037 182.655455 
L 465.811843 182.655455 
L 465.811843 163.453182 
L 349.165037 163.453182 
z
" style="fill:#008000;"/>
   </g>
   <g id="patch_12">
    <path clip-path="url(#pc323cc410f)" d="M 349.165037 158.652614 
L 465.832467 158.652614 
L 465.832467 139.450341 
L 349.165037 139.450341 
z
" style="fill:#008000;"/>
   </g>
   <g id="patch_13">
    <path clip-path="url(#pc323cc410f)" d="M 349.165037 134.649773 
L 469.782661 134.649773 
L 469.782661 115.4475 
L 349.165037 115.4475 
z
" style="fill:#008000;"/>
   </g>
   <g id="patch_14">
    <path clip-path="url(#pc323cc410f)" d="M 349.165037 110.646932 
L 471.116996 110.646932 
L 471.116996 91.444659 
L 349.165037 91.444659 
z
" style="fill:#008000;"/>
   </g>
   <g id="patch_15">
    <path clip-path="url(#pc323cc410f)" d="M 349.165037 86.644091 
L 473.443489 86.644091 
L 473.443489 67.441818 
L 349.165037 67.441818 
z
" style="fill:#008000;"/>
   </g>
   <g id="patch_16">
    <path clip-path="url(#pc323cc410f)" d="M 349.165037 374.678182 
L 172.611595 374.678182 
L 172.611595 355.475909 
L 349.165037 355.475909 
z
" style="fill:#ff0000;"/>
   </g>
   <g id="patch_17">
    <path clip-path="url(#pc323cc410f)" d="M 349.165037 350.675341 
L 196.330257 350.675341 
L 196.330257 331.473068 
L 349.165037 331.473068 
z
" style="fill:#ff0000;"/>
   </g>
   <g id="patch_18">
    <path clip-path="url(#pc323cc410f)" d="M 349.165037 326.6725 
L 223.601624 326.6725 
L 223.601624 307.470227 
L 349.165037 307.470227 
z
" style="fill:#ff0000;"/>
   </g>
   <g id="patch_19">
    <path clip-path="url(#pc323cc410f)" d="M 349.165037 302.669659 
L 349.165037 302.669659 
L 349.165037 283.467386 
L 349.165037 283.467386 
z
" style="fill:#ff0000;"/>
   </g>
   <g id="patch_20">
    <path clip-path="url(#pc323cc410f)" d="M 349.165037 278.666818 
L 349.165037 278.666818 
L 349.165037 259.464545 
L 349.165037 259.464545 
z
" style="fill:#ff0000;"/>
   </g>
   <g id="patch_21">
    <path clip-path="url(#pc323cc410f)" d="M 349.165037 254.663977 
L 349.165037 254.663977 
L 349.165037 235.461705 
L 349.165037 235.461705 
z
" style="fill:#ff0000;"/>
   </g>
   <g id="patch_22">
    <path clip-path="url(#pc323cc410f)" d="M 349.165037 230.661136 
L 349.165037 230.661136 
L 349.165037 211.458864 
L 349.165037 211.458864 
z
" style="fill:#ff0000;"/>
   </g>
   <g id="patch_23">
    <path clip-path="url(#pc323cc410f)" d="M 349.165037 206.658295 
L 349.165037 206.658295 
L 349.165037 187.456023 
L 349.165037 187.456023 
z
" style="fill:#ff0000;"/>
   </g>
   <g id="patch_24">
    <path clip-path="url(#pc323cc410f)" d="M 349.165037 182.655455 
L 349.165037 182.655455 
L 349.165037 163.453182 
L 349.165037 163.453182 
z
" style="fill:#ff0000;"/>
   </g>
   <g id="patch_25">
    <path clip-path="url(#pc323cc410f)" d="M 349.165037 158.652614 
L 349.165037 158.652614 
L 349.165037 139.450341 
L 349.165037 139.450341 
z
" style="fill:#ff0000;"/>
   </g>
   <g id="patch_26">
    <path clip-path="url(#pc323cc410f)" d="M 349.165037 134.649773 
L 349.165037 134.649773 
L 349.165037 115.4475 
L 349.165037 115.4475 
z
" style="fill:#ff0000;"/>
   </g>
   <g id="patch_27">
    <path clip-path="url(#pc323cc410f)" d="M 349.165037 110.646932 
L 349.165037 110.646932 
L 349.165037 91.444659 
L 349.165037 91.444659 
z
" style="fill:#ff0000;"/>
   </g>
   <g id="patch_28">
    <path clip-path="url(#pc323cc410f)" d="M 349.165037 86.644091 
L 349.165037 86.644091 
L 349.165037 67.441818 
L 349.165037 67.441818 
z
" style="fill:#ff0000;"/>
   </g>
   <g id="matplotlib.axis_1">
    <g id="xtick_1">
     <g id="line2d_1">
      <defs>
       <path d="M 0 0 
L 0 3.5 
" id="me70a0d13f6" style="stroke:#000000;stroke-width:0.8;"/>
      </defs>
      <g>
       <use style="stroke:#000000;stroke-width:0.8;" x="174.654485" xlink:href="#me70a0d13f6" y="390.04"/>
      </g>
     </g>
     <g id="text_1">
      <!-- −0.20 -->
      <g transform="translate(159.331829 404.638438)scale(0.1 -0.1)">
       <defs>
        <path d="M 678 2272 
L 4684 2272 
L 4684 1741 
L 678 1741 
L 678 2272 
z
" id="DejaVuSans-2212" transform="scale(0.015625)"/>
        <path d="M 2034 4250 
Q 1547 4250 1301 3770 
Q 1056 3291 1056 2328 
Q 1056 1369 1301 889 
Q 1547 409 2034 409 
Q 2525 409 2770 889 
Q 3016 1369 3016 2328 
Q 3016 3291 2770 3770 
Q 2525 4250 2034 4250 
z
M 2034 4750 
Q 2819 4750 3233 4129 
Q 3647 3509 3647 2328 
Q 3647 1150 3233 529 
Q 2819 -91 2034 -91 
Q 1250 -91 836 529 
Q 422 1150 422 2328 
Q 422 3509 836 4129 
Q 1250 4750 2034 4750 
z
" id="DejaVuSans-30" transform="scale(0.015625)"/>
        <path d="M 684 794 
L 1344 794 
L 1344 0 
L 684 0 
L 684 794 
z
" id="DejaVuSans-2e" transform="scale(0.015625)"/>
        <path d="M 1228 531 
L 3431 531 
L 3431 0 
L 469 0 
L 469 531 
Q 828 903 1448 1529 
Q 2069 2156 2228 2338 
Q 2531 2678 2651 2914 
Q 2772 3150 2772 3378 
Q 2772 3750 2511 3984 
Q 2250 4219 1831 4219 
Q 1534 4219 1204 4116 
Q 875 4013 500 3803 
L 500 4441 
Q 881 4594 1212 4672 
Q 1544 4750 1819 4750 
Q 2544 4750 2975 4387 
Q 3406 4025 3406 3419 
Q 3406 3131 3298 2873 
Q 3191 2616 2906 2266 
Q 2828 2175 2409 1742 
Q 1991 1309 1228 531 
z
" id="DejaVuSans-32" transform="scale(0.015625)"/>
       </defs>
       <use xlink:href="#DejaVuSans-2212"/>
       <use x="83.789062" xlink:href="#DejaVuSans-30"/>
       <use x="147.412109" xlink:href="#DejaVuSans-2e"/>
       <use x="179.199219" xlink:href="#DejaVuSans-32"/>
       <use x="242.822266" xlink:href="#DejaVuSans-30"/>
      </g>
     </g>
    </g>
    <g id="xtick_2">
     <g id="line2d_2">
      <g>
       <use style="stroke:#000000;stroke-width:0.8;" x="218.282123" xlink:href="#me70a0d13f6" y="390.04"/>
      </g>
     </g>
     <g id="text_2">
      <!-- −0.15 -->
      <g transform="translate(202.959467 404.638438)scale(0.1 -0.1)">
       <defs>
        <path d="M 794 531 
L 1825 531 
L 1825 4091 
L 703 3866 
L 703 4441 
L 1819 4666 
L 2450 4666 
L 2450 531 
L 3481 531 
L 3481 0 
L 794 0 
L 794 531 
z
" id="DejaVuSans-31" transform="scale(0.015625)"/>
        <path d="M 691 4666 
L 3169 4666 
L 3169 4134 
L 1269 4134 
L 1269 2991 
Q 1406 3038 1543 3061 
Q 1681 3084 1819 3084 
Q 2600 3084 3056 2656 
Q 3513 2228 3513 1497 
Q 3513 744 3044 326 
Q 2575 -91 1722 -91 
Q 1428 -91 1123 -41 
Q 819 9 494 109 
L 494 744 
Q 775 591 1075 516 
Q 1375 441 1709 441 
Q 2250 441 2565 725 
Q 2881 1009 2881 1497 
Q 2881 1984 2565 2268 
Q 2250 2553 1709 2553 
Q 1456 2553 1204 2497 
Q 953 2441 691 2322 
L 691 4666 
z
" id="DejaVuSans-35" transform="scale(0.015625)"/>
       </defs>
       <use xlink:href="#DejaVuSans-2212"/>
       <use x="83.789062" xlink:href="#DejaVuSans-30"/>
       <use x="147.412109" xlink:href="#DejaVuSans-2e"/>
       <use x="179.199219" xlink:href="#DejaVuSans-31"/>
       <use x="242.822266" xlink:href="#DejaVuSans-35"/>
      </g>
     </g>
    </g>
    <g id="xtick_3">
     <g id="line2d_3">
      <g>
       <use style="stroke:#000000;stroke-width:0.8;" x="261.909761" xlink:href="#me70a0d13f6" y="390.04"/>
      </g>
     </g>
     <g id="text_3">
      <!-- −0.10 -->
      <g transform="translate(246.587105 404.638438)scale(0.1 -0.1)">
       <use xlink:href="#DejaVuSans-2212"/>
       <use x="83.789062" xlink:href="#DejaVuSans-30"/>
       <use x="147.412109" xlink:href="#DejaVuSans-2e"/>
       <use x="179.199219" xlink:href="#DejaVuSans-31"/>
       <use x="242.822266" xlink:href="#DejaVuSans-30"/>
      </g>
     </g>
    </g>
    <g id="xtick_4">
     <g id="line2d_4">
      <g>
       <use style="stroke:#000000;stroke-width:0.8;" x="305.537399" xlink:href="#me70a0d13f6" y="390.04"/>
      </g>
     </g>
     <g id="text_4">
      <!-- −0.05 -->
      <g transform="translate(290.214743 404.638438)scale(0.1 -0.1)">
       <use xlink:href="#DejaVuSans-2212"/>
       <use x="83.789062" xlink:href="#DejaVuSans-30"/>
       <use x="147.412109" xlink:href="#DejaVuSans-2e"/>
       <use x="179.199219" xlink:href="#DejaVuSans-30"/>
       <use x="242.822266" xlink:href="#DejaVuSans-35"/>
      </g>
     </g>
    </g>
    <g id="xtick_5">
     <g id="line2d_5">
      <g>
       <use style="stroke:#000000;stroke-width:0.8;" x="349.165037" xlink:href="#me70a0d13f6" y="390.04"/>
      </g>
     </g>
     <g id="text_5">
      <!-- 0.00 -->
      <g transform="translate(338.032225 404.638438)scale(0.1 -0.1)">
       <use xlink:href="#DejaVuSans-30"/>
       <use x="63.623047" xlink:href="#DejaVuSans-2e"/>
       <use x="95.410156" xlink:href="#DejaVuSans-30"/>
       <use x="159.033203" xlink:href="#DejaVuSans-30"/>
      </g>
     </g>
    </g>
    <g id="xtick_6">
     <g id="line2d_6">
      <g>
       <use style="stroke:#000000;stroke-width:0.8;" x="392.792675" xlink:href="#me70a0d13f6" y="390.04"/>
      </g>
     </g>
     <g id="text_6">
      <!-- 0.05 -->
      <g transform="translate(381.659863 404.638438)scale(0.1 -0.1)">
       <use xlink:href="#DejaVuSans-30"/>
       <use x="63.623047" xlink:href="#DejaVuSans-2e"/>
       <use x="95.410156" xlink:href="#DejaVuSans-30"/>
       <use x="159.033203" xlink:href="#DejaVuSans-35"/>
      </g>
     </g>
    </g>
    <g id="xtick_7">
     <g id="line2d_7">
      <g>
       <use style="stroke:#000000;stroke-width:0.8;" x="436.420313" xlink:href="#me70a0d13f6" y="390.04"/>
      </g>
     </g>
     <g id="text_7">
      <!-- 0.10 -->
      <g transform="translate(425.287501 404.638438)scale(0.1 -0.1)">
       <use xlink:href="#DejaVuSans-30"/>
       <use x="63.623047" xlink:href="#DejaVuSans-2e"/>
       <use x="95.410156" xlink:href="#DejaVuSans-31"/>
       <use x="159.033203" xlink:href="#DejaVuSans-30"/>
      </g>
     </g>
    </g>
    <g id="xtick_8">
     <g id="line2d_8">
      <g>
       <use style="stroke:#000000;stroke-width:0.8;" x="480.047951" xlink:href="#me70a0d13f6" y="390.04"/>
      </g>
     </g>
     <g id="text_8">
      <!-- 0.15 -->
      <g transform="translate(468.915139 404.638438)scale(0.1 -0.1)">
       <use xlink:href="#DejaVuSans-30"/>
       <use x="63.623047" xlink:href="#DejaVuSans-2e"/>
       <use x="95.410156" xlink:href="#DejaVuSans-31"/>
       <use x="159.033203" xlink:href="#DejaVuSans-35"/>
      </g>
     </g>
    </g>
    <g id="text_9">
     <!-- Spearman Correlation -->
     <g transform="translate(268.309573 418.316562)scale(0.1 -0.1)">
      <defs>
       <path d="M 3425 4513 
L 3425 3897 
Q 3066 4069 2747 4153 
Q 2428 4238 2131 4238 
Q 1616 4238 1336 4038 
Q 1056 3838 1056 3469 
Q 1056 3159 1242 3001 
Q 1428 2844 1947 2747 
L 2328 2669 
Q 3034 2534 3370 2195 
Q 3706 1856 3706 1288 
Q 3706 609 3251 259 
Q 2797 -91 1919 -91 
Q 1588 -91 1214 -16 
Q 841 59 441 206 
L 441 856 
Q 825 641 1194 531 
Q 1563 422 1919 422 
Q 2459 422 2753 634 
Q 3047 847 3047 1241 
Q 3047 1584 2836 1778 
Q 2625 1972 2144 2069 
L 1759 2144 
Q 1053 2284 737 2584 
Q 422 2884 422 3419 
Q 422 4038 858 4394 
Q 1294 4750 2059 4750 
Q 2388 4750 2728 4690 
Q 3069 4631 3425 4513 
z
" id="DejaVuSans-53" transform="scale(0.015625)"/>
       <path d="M 1159 525 
L 1159 -1331 
L 581 -1331 
L 581 3500 
L 1159 3500 
L 1159 2969 
Q 1341 3281 1617 3432 
Q 1894 3584 2278 3584 
Q 2916 3584 3314 3078 
Q 3713 2572 3713 1747 
Q 3713 922 3314 415 
Q 2916 -91 2278 -91 
Q 1894 -91 1617 61 
Q 1341 213 1159 525 
z
M 3116 1747 
Q 3116 2381 2855 2742 
Q 2594 3103 2138 3103 
Q 1681 3103 1420 2742 
Q 1159 2381 1159 1747 
Q 1159 1113 1420 752 
Q 1681 391 2138 391 
Q 2594 391 2855 752 
Q 3116 1113 3116 1747 
z
" id="DejaVuSans-70" transform="scale(0.015625)"/>
       <path d="M 3597 1894 
L 3597 1613 
L 953 1613 
Q 991 1019 1311 708 
Q 1631 397 2203 397 
Q 2534 397 2845 478 
Q 3156 559 3463 722 
L 3463 178 
Q 3153 47 2828 -22 
Q 2503 -91 2169 -91 
Q 1331 -91 842 396 
Q 353 884 353 1716 
Q 353 2575 817 3079 
Q 1281 3584 2069 3584 
Q 2775 3584 3186 3129 
Q 3597 2675 3597 1894 
z
M 3022 2063 
Q 3016 2534 2758 2815 
Q 2500 3097 2075 3097 
Q 1594 3097 1305 2825 
Q 1016 2553 972 2059 
L 3022 2063 
z
" id="DejaVuSans-65" transform="scale(0.015625)"/>
       <path d="M 2194 1759 
Q 1497 1759 1228 1600 
Q 959 1441 959 1056 
Q 959 750 1161 570 
Q 1363 391 1709 391 
Q 2188 391 2477 730 
Q 2766 1069 2766 1631 
L 2766 1759 
L 2194 1759 
z
M 3341 1997 
L 3341 0 
L 2766 0 
L 2766 531 
Q 2569 213 2275 61 
Q 1981 -91 1556 -91 
Q 1019 -91 701 211 
Q 384 513 384 1019 
Q 384 1609 779 1909 
Q 1175 2209 1959 2209 
L 2766 2209 
L 2766 2266 
Q 2766 2663 2505 2880 
Q 2244 3097 1772 3097 
Q 1472 3097 1187 3025 
Q 903 2953 641 2809 
L 641 3341 
Q 956 3463 1253 3523 
Q 1550 3584 1831 3584 
Q 2591 3584 2966 3190 
Q 3341 2797 3341 1997 
z
" id="DejaVuSans-61" transform="scale(0.015625)"/>
       <path d="M 2631 2963 
Q 2534 3019 2420 3045 
Q 2306 3072 2169 3072 
Q 1681 3072 1420 2755 
Q 1159 2438 1159 1844 
L 1159 0 
L 581 0 
L 581 3500 
L 1159 3500 
L 1159 2956 
Q 1341 3275 1631 3429 
Q 1922 3584 2338 3584 
Q 2397 3584 2469 3576 
Q 2541 3569 2628 3553 
L 2631 2963 
z
" id="DejaVuSans-72" transform="scale(0.015625)"/>
       <path d="M 3328 2828 
Q 3544 3216 3844 3400 
Q 4144 3584 4550 3584 
Q 5097 3584 5394 3201 
Q 5691 2819 5691 2113 
L 5691 0 
L 5113 0 
L 5113 2094 
Q 5113 2597 4934 2840 
Q 4756 3084 4391 3084 
Q 3944 3084 3684 2787 
Q 3425 2491 3425 1978 
L 3425 0 
L 2847 0 
L 2847 2094 
Q 2847 2600 2669 2842 
Q 2491 3084 2119 3084 
Q 1678 3084 1418 2786 
Q 1159 2488 1159 1978 
L 1159 0 
L 581 0 
L 581 3500 
L 1159 3500 
L 1159 2956 
Q 1356 3278 1631 3431 
Q 1906 3584 2284 3584 
Q 2666 3584 2933 3390 
Q 3200 3197 3328 2828 
z
" id="DejaVuSans-6d" transform="scale(0.015625)"/>
       <path d="M 3513 2113 
L 3513 0 
L 2938 0 
L 2938 2094 
Q 2938 2591 2744 2837 
Q 2550 3084 2163 3084 
Q 1697 3084 1428 2787 
Q 1159 2491 1159 1978 
L 1159 0 
L 581 0 
L 581 3500 
L 1159 3500 
L 1159 2956 
Q 1366 3272 1645 3428 
Q 1925 3584 2291 3584 
Q 2894 3584 3203 3211 
Q 3513 2838 3513 2113 
z
" id="DejaVuSans-6e" transform="scale(0.015625)"/>
       <path id="DejaVuSans-20" transform="scale(0.015625)"/>
       <path d="M 4122 4306 
L 4122 3641 
Q 3803 3938 3442 4084 
Q 3081 4231 2675 4231 
Q 1875 4231 1450 3742 
Q 1025 3253 1025 2328 
Q 1025 1406 1450 917 
Q 1875 428 2675 428 
Q 3081 428 3442 575 
Q 3803 722 4122 1019 
L 4122 359 
Q 3791 134 3420 21 
Q 3050 -91 2638 -91 
Q 1578 -91 968 557 
Q 359 1206 359 2328 
Q 359 3453 968 4101 
Q 1578 4750 2638 4750 
Q 3056 4750 3426 4639 
Q 3797 4528 4122 4306 
z
" id="DejaVuSans-43" transform="scale(0.015625)"/>
       <path d="M 1959 3097 
Q 1497 3097 1228 2736 
Q 959 2375 959 1747 
Q 959 1119 1226 758 
Q 1494 397 1959 397 
Q 2419 397 2687 759 
Q 2956 1122 2956 1747 
Q 2956 2369 2687 2733 
Q 2419 3097 1959 3097 
z
M 1959 3584 
Q 2709 3584 3137 3096 
Q 3566 2609 3566 1747 
Q 3566 888 3137 398 
Q 2709 -91 1959 -91 
Q 1206 -91 779 398 
Q 353 888 353 1747 
Q 353 2609 779 3096 
Q 1206 3584 1959 3584 
z
" id="DejaVuSans-6f" transform="scale(0.015625)"/>
       <path d="M 603 4863 
L 1178 4863 
L 1178 0 
L 603 0 
L 603 4863 
z
" id="DejaVuSans-6c" transform="scale(0.015625)"/>
       <path d="M 1172 4494 
L 1172 3500 
L 2356 3500 
L 2356 3053 
L 1172 3053 
L 1172 1153 
Q 1172 725 1289 603 
Q 1406 481 1766 481 
L 2356 481 
L 2356 0 
L 1766 0 
Q 1100 0 847 248 
Q 594 497 594 1153 
L 594 3053 
L 172 3053 
L 172 3500 
L 594 3500 
L 594 4494 
L 1172 4494 
z
" id="DejaVuSans-74" transform="scale(0.015625)"/>
       <path d="M 603 3500 
L 1178 3500 
L 1178 0 
L 603 0 
L 603 3500 
z
M 603 4863 
L 1178 4863 
L 1178 4134 
L 603 4134 
L 603 4863 
z
" id="DejaVuSans-69" transform="scale(0.015625)"/>
      </defs>
      <use xlink:href="#DejaVuSans-53"/>
      <use x="63.476562" xlink:href="#DejaVuSans-70"/>
      <use x="126.953125" xlink:href="#DejaVuSans-65"/>
      <use x="188.476562" xlink:href="#DejaVuSans-61"/>
      <use x="249.755859" xlink:href="#DejaVuSans-72"/>
      <use x="289.119141" xlink:href="#DejaVuSans-6d"/>
      <use x="386.53125" xlink:href="#DejaVuSans-61"/>
      <use x="447.810547" xlink:href="#DejaVuSans-6e"/>
      <use x="511.189453" xlink:href="#DejaVuSans-20"/>
      <use x="542.976562" xlink:href="#DejaVuSans-43"/>
      <use x="612.800781" xlink:href="#DejaVuSans-6f"/>
      <use x="673.982422" xlink:href="#DejaVuSans-72"/>
      <use x="713.345703" xlink:href="#DejaVuSans-72"/>
      <use x="752.208984" xlink:href="#DejaVuSans-65"/>
      <use x="813.732422" xlink:href="#DejaVuSans-6c"/>
      <use x="841.515625" xlink:href="#DejaVuSans-61"/>
      <use x="902.794922" xlink:href="#DejaVuSans-74"/>
      <use x="942.003906" xlink:href="#DejaVuSans-69"/>
      <use x="969.787109" xlink:href="#DejaVuSans-6f"/>
      <use x="1030.96875" xlink:href="#DejaVuSans-6e"/>
     </g>
    </g>
   </g>
   <g id="matplotlib.axis_2">
    <g id="ytick_1">
     <g id="line2d_9">
      <defs>
       <path d="M 0 0 
L -3.5 0 
" id="m9ea2eb5b30" style="stroke:#000000;stroke-width:0.8;"/>
      </defs>
      <g>
       <use style="stroke:#000000;stroke-width:0.8;" x="157.57" xlink:href="#m9ea2eb5b30" y="365.077045"/>
      </g>
     </g>
     <g id="text_10">
      <!-- Corynebacterium, 5 -->
      <g transform="translate(51.21375 368.876264)scale(0.1 -0.1)">
       <defs>
        <path d="M 2059 -325 
Q 1816 -950 1584 -1140 
Q 1353 -1331 966 -1331 
L 506 -1331 
L 506 -850 
L 844 -850 
Q 1081 -850 1212 -737 
Q 1344 -625 1503 -206 
L 1606 56 
L 191 3500 
L 800 3500 
L 1894 763 
L 2988 3500 
L 3597 3500 
L 2059 -325 
z
" id="DejaVuSans-79" transform="scale(0.015625)"/>
        <path d="M 3116 1747 
Q 3116 2381 2855 2742 
Q 2594 3103 2138 3103 
Q 1681 3103 1420 2742 
Q 1159 2381 1159 1747 
Q 1159 1113 1420 752 
Q 1681 391 2138 391 
Q 2594 391 2855 752 
Q 3116 1113 3116 1747 
z
M 1159 2969 
Q 1341 3281 1617 3432 
Q 1894 3584 2278 3584 
Q 2916 3584 3314 3078 
Q 3713 2572 3713 1747 
Q 3713 922 3314 415 
Q 2916 -91 2278 -91 
Q 1894 -91 1617 61 
Q 1341 213 1159 525 
L 1159 0 
L 581 0 
L 581 4863 
L 1159 4863 
L 1159 2969 
z
" id="DejaVuSans-62" transform="scale(0.015625)"/>
        <path d="M 3122 3366 
L 3122 2828 
Q 2878 2963 2633 3030 
Q 2388 3097 2138 3097 
Q 1578 3097 1268 2742 
Q 959 2388 959 1747 
Q 959 1106 1268 751 
Q 1578 397 2138 397 
Q 2388 397 2633 464 
Q 2878 531 3122 666 
L 3122 134 
Q 2881 22 2623 -34 
Q 2366 -91 2075 -91 
Q 1284 -91 818 406 
Q 353 903 353 1747 
Q 353 2603 823 3093 
Q 1294 3584 2113 3584 
Q 2378 3584 2631 3529 
Q 2884 3475 3122 3366 
z
" id="DejaVuSans-63" transform="scale(0.015625)"/>
        <path d="M 544 1381 
L 544 3500 
L 1119 3500 
L 1119 1403 
Q 1119 906 1312 657 
Q 1506 409 1894 409 
Q 2359 409 2629 706 
Q 2900 1003 2900 1516 
L 2900 3500 
L 3475 3500 
L 3475 0 
L 2900 0 
L 2900 538 
Q 2691 219 2414 64 
Q 2138 -91 1772 -91 
Q 1169 -91 856 284 
Q 544 659 544 1381 
z
M 1991 3584 
L 1991 3584 
z
" id="DejaVuSans-75" transform="scale(0.015625)"/>
        <path d="M 750 794 
L 1409 794 
L 1409 256 
L 897 -744 
L 494 -744 
L 750 256 
L 750 794 
z
" id="DejaVuSans-2c" transform="scale(0.015625)"/>
       </defs>
       <use xlink:href="#DejaVuSans-43"/>
       <use x="69.824219" xlink:href="#DejaVuSans-6f"/>
       <use x="131.005859" xlink:href="#DejaVuSans-72"/>
       <use x="172.119141" xlink:href="#DejaVuSans-79"/>
       <use x="231.298828" xlink:href="#DejaVuSans-6e"/>
       <use x="294.677734" xlink:href="#DejaVuSans-65"/>
       <use x="356.201172" xlink:href="#DejaVuSans-62"/>
       <use x="419.677734" xlink:href="#DejaVuSans-61"/>
       <use x="480.957031" xlink:href="#DejaVuSans-63"/>
       <use x="535.9375" xlink:href="#DejaVuSans-74"/>
       <use x="575.146484" xlink:href="#DejaVuSans-65"/>
       <use x="636.669922" xlink:href="#DejaVuSans-72"/>
       <use x="677.783203" xlink:href="#DejaVuSans-69"/>
       <use x="705.566406" xlink:href="#DejaVuSans-75"/>
       <use x="768.945312" xlink:href="#DejaVuSans-6d"/>
       <use x="866.357422" xlink:href="#DejaVuSans-2c"/>
       <use x="898.144531" xlink:href="#DejaVuSans-20"/>
       <use x="929.931641" xlink:href="#DejaVuSans-35"/>
      </g>
     </g>
    </g>
    <g id="ytick_2">
     <g id="line2d_10">
      <g>
       <use style="stroke:#000000;stroke-width:0.8;" x="157.57" xlink:href="#m9ea2eb5b30" y="341.074205"/>
      </g>
     </g>
     <g id="text_11">
      <!-- Methanobrevibacter, 8 -->
      <g transform="translate(36.984063 344.873423)scale(0.1 -0.1)">
       <defs>
        <path d="M 628 4666 
L 1569 4666 
L 2759 1491 
L 3956 4666 
L 4897 4666 
L 4897 0 
L 4281 0 
L 4281 4097 
L 3078 897 
L 2444 897 
L 1241 4097 
L 1241 0 
L 628 0 
L 628 4666 
z
" id="DejaVuSans-4d" transform="scale(0.015625)"/>
        <path d="M 3513 2113 
L 3513 0 
L 2938 0 
L 2938 2094 
Q 2938 2591 2744 2837 
Q 2550 3084 2163 3084 
Q 1697 3084 1428 2787 
Q 1159 2491 1159 1978 
L 1159 0 
L 581 0 
L 581 4863 
L 1159 4863 
L 1159 2956 
Q 1366 3272 1645 3428 
Q 1925 3584 2291 3584 
Q 2894 3584 3203 3211 
Q 3513 2838 3513 2113 
z
" id="DejaVuSans-68" transform="scale(0.015625)"/>
        <path d="M 191 3500 
L 800 3500 
L 1894 563 
L 2988 3500 
L 3597 3500 
L 2284 0 
L 1503 0 
L 191 3500 
z
" id="DejaVuSans-76" transform="scale(0.015625)"/>
        <path d="M 2034 2216 
Q 1584 2216 1326 1975 
Q 1069 1734 1069 1313 
Q 1069 891 1326 650 
Q 1584 409 2034 409 
Q 2484 409 2743 651 
Q 3003 894 3003 1313 
Q 3003 1734 2745 1975 
Q 2488 2216 2034 2216 
z
M 1403 2484 
Q 997 2584 770 2862 
Q 544 3141 544 3541 
Q 544 4100 942 4425 
Q 1341 4750 2034 4750 
Q 2731 4750 3128 4425 
Q 3525 4100 3525 3541 
Q 3525 3141 3298 2862 
Q 3072 2584 2669 2484 
Q 3125 2378 3379 2068 
Q 3634 1759 3634 1313 
Q 3634 634 3220 271 
Q 2806 -91 2034 -91 
Q 1263 -91 848 271 
Q 434 634 434 1313 
Q 434 1759 690 2068 
Q 947 2378 1403 2484 
z
M 1172 3481 
Q 1172 3119 1398 2916 
Q 1625 2713 2034 2713 
Q 2441 2713 2670 2916 
Q 2900 3119 2900 3481 
Q 2900 3844 2670 4047 
Q 2441 4250 2034 4250 
Q 1625 4250 1398 4047 
Q 1172 3844 1172 3481 
z
" id="DejaVuSans-38" transform="scale(0.015625)"/>
       </defs>
       <use xlink:href="#DejaVuSans-4d"/>
       <use x="86.279297" xlink:href="#DejaVuSans-65"/>
       <use x="147.802734" xlink:href="#DejaVuSans-74"/>
       <use x="187.011719" xlink:href="#DejaVuSans-68"/>
       <use x="250.390625" xlink:href="#DejaVuSans-61"/>
       <use x="311.669922" xlink:href="#DejaVuSans-6e"/>
       <use x="375.048828" xlink:href="#DejaVuSans-6f"/>
       <use x="436.230469" xlink:href="#DejaVuSans-62"/>
       <use x="499.707031" xlink:href="#DejaVuSans-72"/>
       <use x="538.570312" xlink:href="#DejaVuSans-65"/>
       <use x="600.09375" xlink:href="#DejaVuSans-76"/>
       <use x="659.273438" xlink:href="#DejaVuSans-69"/>
       <use x="687.056641" xlink:href="#DejaVuSans-62"/>
       <use x="750.533203" xlink:href="#DejaVuSans-61"/>
       <use x="811.8125" xlink:href="#DejaVuSans-63"/>
       <use x="866.792969" xlink:href="#DejaVuSans-74"/>
       <use x="906.001953" xlink:href="#DejaVuSans-65"/>
       <use x="967.525391" xlink:href="#DejaVuSans-72"/>
       <use x="1008.638672" xlink:href="#DejaVuSans-2c"/>
       <use x="1040.425781" xlink:href="#DejaVuSans-20"/>
       <use x="1072.212891" xlink:href="#DejaVuSans-38"/>
      </g>
     </g>
    </g>
    <g id="ytick_3">
     <g id="line2d_11">
      <g>
       <use style="stroke:#000000;stroke-width:0.8;" x="157.57" xlink:href="#m9ea2eb5b30" y="317.071364"/>
      </g>
     </g>
     <g id="text_12">
      <!-- Methanobrevibacter, 1 -->
      <g transform="translate(36.984063 320.870582)scale(0.1 -0.1)">
       <use xlink:href="#DejaVuSans-4d"/>
       <use x="86.279297" xlink:href="#DejaVuSans-65"/>
       <use x="147.802734" xlink:href="#DejaVuSans-74"/>
       <use x="187.011719" xlink:href="#DejaVuSans-68"/>
       <use x="250.390625" xlink:href="#DejaVuSans-61"/>
       <use x="311.669922" xlink:href="#DejaVuSans-6e"/>
       <use x="375.048828" xlink:href="#DejaVuSans-6f"/>
       <use x="436.230469" xlink:href="#DejaVuSans-62"/>
       <use x="499.707031" xlink:href="#DejaVuSans-72"/>
       <use x="538.570312" xlink:href="#DejaVuSans-65"/>
       <use x="600.09375" xlink:href="#DejaVuSans-76"/>
       <use x="659.273438" xlink:href="#DejaVuSans-69"/>
       <use x="687.056641" xlink:href="#DejaVuSans-62"/>
       <use x="750.533203" xlink:href="#DejaVuSans-61"/>
       <use x="811.8125" xlink:href="#DejaVuSans-63"/>
       <use x="866.792969" xlink:href="#DejaVuSans-74"/>
       <use x="906.001953" xlink:href="#DejaVuSans-65"/>
       <use x="967.525391" xlink:href="#DejaVuSans-72"/>
       <use x="1008.638672" xlink:href="#DejaVuSans-2c"/>
       <use x="1040.425781" xlink:href="#DejaVuSans-20"/>
       <use x="1072.212891" xlink:href="#DejaVuSans-31"/>
      </g>
     </g>
    </g>
    <g id="ytick_4">
     <g id="line2d_12">
      <g>
       <use style="stroke:#000000;stroke-width:0.8;" x="157.57" xlink:href="#m9ea2eb5b30" y="293.068523"/>
      </g>
     </g>
     <g id="text_13">
      <!-- Streptococcus, Anginosus_0 -->
      <g transform="translate(10.477813 296.867741)scale(0.1 -0.1)">
       <defs>
        <path d="M 2834 3397 
L 2834 2853 
Q 2591 2978 2328 3040 
Q 2066 3103 1784 3103 
Q 1356 3103 1142 2972 
Q 928 2841 928 2578 
Q 928 2378 1081 2264 
Q 1234 2150 1697 2047 
L 1894 2003 
Q 2506 1872 2764 1633 
Q 3022 1394 3022 966 
Q 3022 478 2636 193 
Q 2250 -91 1575 -91 
Q 1294 -91 989 -36 
Q 684 19 347 128 
L 347 722 
Q 666 556 975 473 
Q 1284 391 1588 391 
Q 1994 391 2212 530 
Q 2431 669 2431 922 
Q 2431 1156 2273 1281 
Q 2116 1406 1581 1522 
L 1381 1569 
Q 847 1681 609 1914 
Q 372 2147 372 2553 
Q 372 3047 722 3315 
Q 1072 3584 1716 3584 
Q 2034 3584 2315 3537 
Q 2597 3491 2834 3397 
z
" id="DejaVuSans-73" transform="scale(0.015625)"/>
        <path d="M 2188 4044 
L 1331 1722 
L 3047 1722 
L 2188 4044 
z
M 1831 4666 
L 2547 4666 
L 4325 0 
L 3669 0 
L 3244 1197 
L 1141 1197 
L 716 0 
L 50 0 
L 1831 4666 
z
" id="DejaVuSans-41" transform="scale(0.015625)"/>
        <path d="M 2906 1791 
Q 2906 2416 2648 2759 
Q 2391 3103 1925 3103 
Q 1463 3103 1205 2759 
Q 947 2416 947 1791 
Q 947 1169 1205 825 
Q 1463 481 1925 481 
Q 2391 481 2648 825 
Q 2906 1169 2906 1791 
z
M 3481 434 
Q 3481 -459 3084 -895 
Q 2688 -1331 1869 -1331 
Q 1566 -1331 1297 -1286 
Q 1028 -1241 775 -1147 
L 775 -588 
Q 1028 -725 1275 -790 
Q 1522 -856 1778 -856 
Q 2344 -856 2625 -561 
Q 2906 -266 2906 331 
L 2906 616 
Q 2728 306 2450 153 
Q 2172 0 1784 0 
Q 1141 0 747 490 
Q 353 981 353 1791 
Q 353 2603 747 3093 
Q 1141 3584 1784 3584 
Q 2172 3584 2450 3431 
Q 2728 3278 2906 2969 
L 2906 3500 
L 3481 3500 
L 3481 434 
z
" id="DejaVuSans-67" transform="scale(0.015625)"/>
        <path d="M 3263 -1063 
L 3263 -1509 
L -63 -1509 
L -63 -1063 
L 3263 -1063 
z
" id="DejaVuSans-5f" transform="scale(0.015625)"/>
       </defs>
       <use xlink:href="#DejaVuSans-53"/>
       <use x="63.476562" xlink:href="#DejaVuSans-74"/>
       <use x="102.685547" xlink:href="#DejaVuSans-72"/>
       <use x="141.548828" xlink:href="#DejaVuSans-65"/>
       <use x="203.072266" xlink:href="#DejaVuSans-70"/>
       <use x="266.548828" xlink:href="#DejaVuSans-74"/>
       <use x="305.757812" xlink:href="#DejaVuSans-6f"/>
       <use x="366.939453" xlink:href="#DejaVuSans-63"/>
       <use x="421.919922" xlink:href="#DejaVuSans-6f"/>
       <use x="483.101562" xlink:href="#DejaVuSans-63"/>
       <use x="538.082031" xlink:href="#DejaVuSans-63"/>
       <use x="593.0625" xlink:href="#DejaVuSans-75"/>
       <use x="656.441406" xlink:href="#DejaVuSans-73"/>
       <use x="708.541016" xlink:href="#DejaVuSans-2c"/>
       <use x="740.328125" xlink:href="#DejaVuSans-20"/>
       <use x="772.115234" xlink:href="#DejaVuSans-41"/>
       <use x="840.523438" xlink:href="#DejaVuSans-6e"/>
       <use x="903.902344" xlink:href="#DejaVuSans-67"/>
       <use x="967.378906" xlink:href="#DejaVuSans-69"/>
       <use x="995.162109" xlink:href="#DejaVuSans-6e"/>
       <use x="1058.541016" xlink:href="#DejaVuSans-6f"/>
       <use x="1119.722656" xlink:href="#DejaVuSans-73"/>
       <use x="1171.822266" xlink:href="#DejaVuSans-75"/>
       <use x="1235.201172" xlink:href="#DejaVuSans-73"/>
       <use x="1287.300781" xlink:href="#DejaVuSans-5f"/>
       <use x="1337.300781" xlink:href="#DejaVuSans-30"/>
      </g>
     </g>
    </g>
    <g id="ytick_5">
     <g id="line2d_13">
      <g>
       <use style="stroke:#000000;stroke-width:0.8;" x="157.57" xlink:href="#m9ea2eb5b30" y="269.065682"/>
      </g>
     </g>
     <g id="text_14">
      <!-- Oxalobacter, Formigenes_0 -->
      <g transform="translate(13.712188 272.864901)scale(0.1 -0.1)">
       <defs>
        <path d="M 2522 4238 
Q 1834 4238 1429 3725 
Q 1025 3213 1025 2328 
Q 1025 1447 1429 934 
Q 1834 422 2522 422 
Q 3209 422 3611 934 
Q 4013 1447 4013 2328 
Q 4013 3213 3611 3725 
Q 3209 4238 2522 4238 
z
M 2522 4750 
Q 3503 4750 4090 4092 
Q 4678 3434 4678 2328 
Q 4678 1225 4090 567 
Q 3503 -91 2522 -91 
Q 1538 -91 948 565 
Q 359 1222 359 2328 
Q 359 3434 948 4092 
Q 1538 4750 2522 4750 
z
" id="DejaVuSans-4f" transform="scale(0.015625)"/>
        <path d="M 3513 3500 
L 2247 1797 
L 3578 0 
L 2900 0 
L 1881 1375 
L 863 0 
L 184 0 
L 1544 1831 
L 300 3500 
L 978 3500 
L 1906 2253 
L 2834 3500 
L 3513 3500 
z
" id="DejaVuSans-78" transform="scale(0.015625)"/>
        <path d="M 628 4666 
L 3309 4666 
L 3309 4134 
L 1259 4134 
L 1259 2759 
L 3109 2759 
L 3109 2228 
L 1259 2228 
L 1259 0 
L 628 0 
L 628 4666 
z
" id="DejaVuSans-46" transform="scale(0.015625)"/>
       </defs>
       <use xlink:href="#DejaVuSans-4f"/>
       <use x="78.710938" xlink:href="#DejaVuSans-78"/>
       <use x="137.890625" xlink:href="#DejaVuSans-61"/>
       <use x="199.169922" xlink:href="#DejaVuSans-6c"/>
       <use x="226.953125" xlink:href="#DejaVuSans-6f"/>
       <use x="288.134766" xlink:href="#DejaVuSans-62"/>
       <use x="351.611328" xlink:href="#DejaVuSans-61"/>
       <use x="412.890625" xlink:href="#DejaVuSans-63"/>
       <use x="467.871094" xlink:href="#DejaVuSans-74"/>
       <use x="507.080078" xlink:href="#DejaVuSans-65"/>
       <use x="568.603516" xlink:href="#DejaVuSans-72"/>
       <use x="609.716797" xlink:href="#DejaVuSans-2c"/>
       <use x="641.503906" xlink:href="#DejaVuSans-20"/>
       <use x="673.291016" xlink:href="#DejaVuSans-46"/>
       <use x="727.185547" xlink:href="#DejaVuSans-6f"/>
       <use x="788.367188" xlink:href="#DejaVuSans-72"/>
       <use x="827.730469" xlink:href="#DejaVuSans-6d"/>
       <use x="925.142578" xlink:href="#DejaVuSans-69"/>
       <use x="952.925781" xlink:href="#DejaVuSans-67"/>
       <use x="1016.402344" xlink:href="#DejaVuSans-65"/>
       <use x="1077.925781" xlink:href="#DejaVuSans-6e"/>
       <use x="1141.304688" xlink:href="#DejaVuSans-65"/>
       <use x="1202.828125" xlink:href="#DejaVuSans-73"/>
       <use x="1254.927734" xlink:href="#DejaVuSans-5f"/>
       <use x="1304.927734" xlink:href="#DejaVuSans-30"/>
      </g>
     </g>
    </g>
    <g id="ytick_6">
     <g id="line2d_14">
      <g>
       <use style="stroke:#000000;stroke-width:0.8;" x="157.57" xlink:href="#m9ea2eb5b30" y="245.062841"/>
      </g>
     </g>
     <g id="text_15">
      <!-- Methanobrevibacter, 10 -->
      <g transform="translate(30.621563 248.86206)scale(0.1 -0.1)">
       <use xlink:href="#DejaVuSans-4d"/>
       <use x="86.279297" xlink:href="#DejaVuSans-65"/>
       <use x="147.802734" xlink:href="#DejaVuSans-74"/>
       <use x="187.011719" xlink:href="#DejaVuSans-68"/>
       <use x="250.390625" xlink:href="#DejaVuSans-61"/>
       <use x="311.669922" xlink:href="#DejaVuSans-6e"/>
       <use x="375.048828" xlink:href="#DejaVuSans-6f"/>
       <use x="436.230469" xlink:href="#DejaVuSans-62"/>
       <use x="499.707031" xlink:href="#DejaVuSans-72"/>
       <use x="538.570312" xlink:href="#DejaVuSans-65"/>
       <use x="600.09375" xlink:href="#DejaVuSans-76"/>
       <use x="659.273438" xlink:href="#DejaVuSans-69"/>
       <use x="687.056641" xlink:href="#DejaVuSans-62"/>
       <use x="750.533203" xlink:href="#DejaVuSans-61"/>
       <use x="811.8125" xlink:href="#DejaVuSans-63"/>
       <use x="866.792969" xlink:href="#DejaVuSans-74"/>
       <use x="906.001953" xlink:href="#DejaVuSans-65"/>
       <use x="967.525391" xlink:href="#DejaVuSans-72"/>
       <use x="1008.638672" xlink:href="#DejaVuSans-2c"/>
       <use x="1040.425781" xlink:href="#DejaVuSans-20"/>
       <use x="1072.212891" xlink:href="#DejaVuSans-31"/>
       <use x="1135.835938" xlink:href="#DejaVuSans-30"/>
      </g>
     </g>
    </g>
    <g id="ytick_7">
     <g id="line2d_15">
      <g>
       <use style="stroke:#000000;stroke-width:0.8;" x="157.57" xlink:href="#m9ea2eb5b30" y="221.06"/>
      </g>
     </g>
     <g id="text_16">
      <!-- Methanobrevibacter, 3 -->
      <g transform="translate(36.984063 224.859219)scale(0.1 -0.1)">
       <defs>
        <path d="M 2597 2516 
Q 3050 2419 3304 2112 
Q 3559 1806 3559 1356 
Q 3559 666 3084 287 
Q 2609 -91 1734 -91 
Q 1441 -91 1130 -33 
Q 819 25 488 141 
L 488 750 
Q 750 597 1062 519 
Q 1375 441 1716 441 
Q 2309 441 2620 675 
Q 2931 909 2931 1356 
Q 2931 1769 2642 2001 
Q 2353 2234 1838 2234 
L 1294 2234 
L 1294 2753 
L 1863 2753 
Q 2328 2753 2575 2939 
Q 2822 3125 2822 3475 
Q 2822 3834 2567 4026 
Q 2313 4219 1838 4219 
Q 1578 4219 1281 4162 
Q 984 4106 628 3988 
L 628 4550 
Q 988 4650 1302 4700 
Q 1616 4750 1894 4750 
Q 2613 4750 3031 4423 
Q 3450 4097 3450 3541 
Q 3450 3153 3228 2886 
Q 3006 2619 2597 2516 
z
" id="DejaVuSans-33" transform="scale(0.015625)"/>
       </defs>
       <use xlink:href="#DejaVuSans-4d"/>
       <use x="86.279297" xlink:href="#DejaVuSans-65"/>
       <use x="147.802734" xlink:href="#DejaVuSans-74"/>
       <use x="187.011719" xlink:href="#DejaVuSans-68"/>
       <use x="250.390625" xlink:href="#DejaVuSans-61"/>
       <use x="311.669922" xlink:href="#DejaVuSans-6e"/>
       <use x="375.048828" xlink:href="#DejaVuSans-6f"/>
       <use x="436.230469" xlink:href="#DejaVuSans-62"/>
       <use x="499.707031" xlink:href="#DejaVuSans-72"/>
       <use x="538.570312" xlink:href="#DejaVuSans-65"/>
       <use x="600.09375" xlink:href="#DejaVuSans-76"/>
       <use x="659.273438" xlink:href="#DejaVuSans-69"/>
       <use x="687.056641" xlink:href="#DejaVuSans-62"/>
       <use x="750.533203" xlink:href="#DejaVuSans-61"/>
       <use x="811.8125" xlink:href="#DejaVuSans-63"/>
       <use x="866.792969" xlink:href="#DejaVuSans-74"/>
       <use x="906.001953" xlink:href="#DejaVuSans-65"/>
       <use x="967.525391" xlink:href="#DejaVuSans-72"/>
       <use x="1008.638672" xlink:href="#DejaVuSans-2c"/>
       <use x="1040.425781" xlink:href="#DejaVuSans-20"/>
       <use x="1072.212891" xlink:href="#DejaVuSans-33"/>
      </g>
     </g>
    </g>
    <g id="ytick_8">
     <g id="line2d_16">
      <g>
       <use style="stroke:#000000;stroke-width:0.8;" x="157.57" xlink:href="#m9ea2eb5b30" y="197.057159"/>
      </g>
     </g>
     <g id="text_17">
      <!-- Dorea, Formicigenerans_0 -->
      <g transform="translate(19.848125 200.856378)scale(0.1 -0.1)">
       <defs>
        <path d="M 1259 4147 
L 1259 519 
L 2022 519 
Q 2988 519 3436 956 
Q 3884 1394 3884 2338 
Q 3884 3275 3436 3711 
Q 2988 4147 2022 4147 
L 1259 4147 
z
M 628 4666 
L 1925 4666 
Q 3281 4666 3915 4102 
Q 4550 3538 4550 2338 
Q 4550 1131 3912 565 
Q 3275 0 1925 0 
L 628 0 
L 628 4666 
z
" id="DejaVuSans-44" transform="scale(0.015625)"/>
       </defs>
       <use xlink:href="#DejaVuSans-44"/>
       <use x="77.001953" xlink:href="#DejaVuSans-6f"/>
       <use x="138.183594" xlink:href="#DejaVuSans-72"/>
       <use x="177.046875" xlink:href="#DejaVuSans-65"/>
       <use x="238.570312" xlink:href="#DejaVuSans-61"/>
       <use x="299.849609" xlink:href="#DejaVuSans-2c"/>
       <use x="331.636719" xlink:href="#DejaVuSans-20"/>
       <use x="363.423828" xlink:href="#DejaVuSans-46"/>
       <use x="417.318359" xlink:href="#DejaVuSans-6f"/>
       <use x="478.5" xlink:href="#DejaVuSans-72"/>
       <use x="517.863281" xlink:href="#DejaVuSans-6d"/>
       <use x="615.275391" xlink:href="#DejaVuSans-69"/>
       <use x="643.058594" xlink:href="#DejaVuSans-63"/>
       <use x="698.039062" xlink:href="#DejaVuSans-69"/>
       <use x="725.822266" xlink:href="#DejaVuSans-67"/>
       <use x="789.298828" xlink:href="#DejaVuSans-65"/>
       <use x="850.822266" xlink:href="#DejaVuSans-6e"/>
       <use x="914.201172" xlink:href="#DejaVuSans-65"/>
       <use x="975.724609" xlink:href="#DejaVuSans-72"/>
       <use x="1016.837891" xlink:href="#DejaVuSans-61"/>
       <use x="1078.117188" xlink:href="#DejaVuSans-6e"/>
       <use x="1141.496094" xlink:href="#DejaVuSans-73"/>
       <use x="1193.595703" xlink:href="#DejaVuSans-5f"/>
       <use x="1243.595703" xlink:href="#DejaVuSans-30"/>
      </g>
     </g>
    </g>
    <g id="ytick_9">
     <g id="line2d_17">
      <g>
       <use style="stroke:#000000;stroke-width:0.8;" x="157.57" xlink:href="#m9ea2eb5b30" y="173.054318"/>
      </g>
     </g>
     <g id="text_18">
      <!-- Blautia, Producta_0 -->
      <g transform="translate(53.827813 176.853537)scale(0.1 -0.1)">
       <defs>
        <path d="M 1259 2228 
L 1259 519 
L 2272 519 
Q 2781 519 3026 730 
Q 3272 941 3272 1375 
Q 3272 1813 3026 2020 
Q 2781 2228 2272 2228 
L 1259 2228 
z
M 1259 4147 
L 1259 2741 
L 2194 2741 
Q 2656 2741 2882 2914 
Q 3109 3088 3109 3444 
Q 3109 3797 2882 3972 
Q 2656 4147 2194 4147 
L 1259 4147 
z
M 628 4666 
L 2241 4666 
Q 2963 4666 3353 4366 
Q 3744 4066 3744 3513 
Q 3744 3084 3544 2831 
Q 3344 2578 2956 2516 
Q 3422 2416 3680 2098 
Q 3938 1781 3938 1306 
Q 3938 681 3513 340 
Q 3088 0 2303 0 
L 628 0 
L 628 4666 
z
" id="DejaVuSans-42" transform="scale(0.015625)"/>
        <path d="M 1259 4147 
L 1259 2394 
L 2053 2394 
Q 2494 2394 2734 2622 
Q 2975 2850 2975 3272 
Q 2975 3691 2734 3919 
Q 2494 4147 2053 4147 
L 1259 4147 
z
M 628 4666 
L 2053 4666 
Q 2838 4666 3239 4311 
Q 3641 3956 3641 3272 
Q 3641 2581 3239 2228 
Q 2838 1875 2053 1875 
L 1259 1875 
L 1259 0 
L 628 0 
L 628 4666 
z
" id="DejaVuSans-50" transform="scale(0.015625)"/>
        <path d="M 2906 2969 
L 2906 4863 
L 3481 4863 
L 3481 0 
L 2906 0 
L 2906 525 
Q 2725 213 2448 61 
Q 2172 -91 1784 -91 
Q 1150 -91 751 415 
Q 353 922 353 1747 
Q 353 2572 751 3078 
Q 1150 3584 1784 3584 
Q 2172 3584 2448 3432 
Q 2725 3281 2906 2969 
z
M 947 1747 
Q 947 1113 1208 752 
Q 1469 391 1925 391 
Q 2381 391 2643 752 
Q 2906 1113 2906 1747 
Q 2906 2381 2643 2742 
Q 2381 3103 1925 3103 
Q 1469 3103 1208 2742 
Q 947 2381 947 1747 
z
" id="DejaVuSans-64" transform="scale(0.015625)"/>
       </defs>
       <use xlink:href="#DejaVuSans-42"/>
       <use x="68.603516" xlink:href="#DejaVuSans-6c"/>
       <use x="96.386719" xlink:href="#DejaVuSans-61"/>
       <use x="157.666016" xlink:href="#DejaVuSans-75"/>
       <use x="221.044922" xlink:href="#DejaVuSans-74"/>
       <use x="260.253906" xlink:href="#DejaVuSans-69"/>
       <use x="288.037109" xlink:href="#DejaVuSans-61"/>
       <use x="349.316406" xlink:href="#DejaVuSans-2c"/>
       <use x="381.103516" xlink:href="#DejaVuSans-20"/>
       <use x="412.890625" xlink:href="#DejaVuSans-50"/>
       <use x="471.443359" xlink:href="#DejaVuSans-72"/>
       <use x="510.306641" xlink:href="#DejaVuSans-6f"/>
       <use x="571.488281" xlink:href="#DejaVuSans-64"/>
       <use x="634.964844" xlink:href="#DejaVuSans-75"/>
       <use x="698.34375" xlink:href="#DejaVuSans-63"/>
       <use x="753.324219" xlink:href="#DejaVuSans-74"/>
       <use x="792.533203" xlink:href="#DejaVuSans-61"/>
       <use x="853.8125" xlink:href="#DejaVuSans-5f"/>
       <use x="903.8125" xlink:href="#DejaVuSans-30"/>
      </g>
     </g>
    </g>
    <g id="ytick_10">
     <g id="line2d_18">
      <g>
       <use style="stroke:#000000;stroke-width:0.8;" x="157.57" xlink:href="#m9ea2eb5b30" y="149.051477"/>
      </g>
     </g>
     <g id="text_19">
      <!-- Methanobrevibacter, 0 -->
      <g transform="translate(36.984063 152.850696)scale(0.1 -0.1)">
       <use xlink:href="#DejaVuSans-4d"/>
       <use x="86.279297" xlink:href="#DejaVuSans-65"/>
       <use x="147.802734" xlink:href="#DejaVuSans-74"/>
       <use x="187.011719" xlink:href="#DejaVuSans-68"/>
       <use x="250.390625" xlink:href="#DejaVuSans-61"/>
       <use x="311.669922" xlink:href="#DejaVuSans-6e"/>
       <use x="375.048828" xlink:href="#DejaVuSans-6f"/>
       <use x="436.230469" xlink:href="#DejaVuSans-62"/>
       <use x="499.707031" xlink:href="#DejaVuSans-72"/>
       <use x="538.570312" xlink:href="#DejaVuSans-65"/>
       <use x="600.09375" xlink:href="#DejaVuSans-76"/>
       <use x="659.273438" xlink:href="#DejaVuSans-69"/>
       <use x="687.056641" xlink:href="#DejaVuSans-62"/>
       <use x="750.533203" xlink:href="#DejaVuSans-61"/>
       <use x="811.8125" xlink:href="#DejaVuSans-63"/>
       <use x="866.792969" xlink:href="#DejaVuSans-74"/>
       <use x="906.001953" xlink:href="#DejaVuSans-65"/>
       <use x="967.525391" xlink:href="#DejaVuSans-72"/>
       <use x="1008.638672" xlink:href="#DejaVuSans-2c"/>
       <use x="1040.425781" xlink:href="#DejaVuSans-20"/>
       <use x="1072.212891" xlink:href="#DejaVuSans-30"/>
      </g>
     </g>
    </g>
    <g id="ytick_11">
     <g id="line2d_19">
      <g>
       <use style="stroke:#000000;stroke-width:0.8;" x="157.57" xlink:href="#m9ea2eb5b30" y="125.048636"/>
      </g>
     </g>
     <g id="text_20">
      <!-- Bacteroides, Uniformis_0 -->
      <g transform="translate(26.059063 128.847855)scale(0.1 -0.1)">
       <defs>
        <path d="M 556 4666 
L 1191 4666 
L 1191 1831 
Q 1191 1081 1462 751 
Q 1734 422 2344 422 
Q 2950 422 3222 751 
Q 3494 1081 3494 1831 
L 3494 4666 
L 4128 4666 
L 4128 1753 
Q 4128 841 3676 375 
Q 3225 -91 2344 -91 
Q 1459 -91 1007 375 
Q 556 841 556 1753 
L 556 4666 
z
" id="DejaVuSans-55" transform="scale(0.015625)"/>
        <path d="M 2375 4863 
L 2375 4384 
L 1825 4384 
Q 1516 4384 1395 4259 
Q 1275 4134 1275 3809 
L 1275 3500 
L 2222 3500 
L 2222 3053 
L 1275 3053 
L 1275 0 
L 697 0 
L 697 3053 
L 147 3053 
L 147 3500 
L 697 3500 
L 697 3744 
Q 697 4328 969 4595 
Q 1241 4863 1831 4863 
L 2375 4863 
z
" id="DejaVuSans-66" transform="scale(0.015625)"/>
       </defs>
       <use xlink:href="#DejaVuSans-42"/>
       <use x="68.603516" xlink:href="#DejaVuSans-61"/>
       <use x="129.882812" xlink:href="#DejaVuSans-63"/>
       <use x="184.863281" xlink:href="#DejaVuSans-74"/>
       <use x="224.072266" xlink:href="#DejaVuSans-65"/>
       <use x="285.595703" xlink:href="#DejaVuSans-72"/>
       <use x="324.458984" xlink:href="#DejaVuSans-6f"/>
       <use x="385.640625" xlink:href="#DejaVuSans-69"/>
       <use x="413.423828" xlink:href="#DejaVuSans-64"/>
       <use x="476.900391" xlink:href="#DejaVuSans-65"/>
       <use x="538.423828" xlink:href="#DejaVuSans-73"/>
       <use x="590.523438" xlink:href="#DejaVuSans-2c"/>
       <use x="622.310547" xlink:href="#DejaVuSans-20"/>
       <use x="654.097656" xlink:href="#DejaVuSans-55"/>
       <use x="727.291016" xlink:href="#DejaVuSans-6e"/>
       <use x="790.669922" xlink:href="#DejaVuSans-69"/>
       <use x="818.453125" xlink:href="#DejaVuSans-66"/>
       <use x="853.658203" xlink:href="#DejaVuSans-6f"/>
       <use x="914.839844" xlink:href="#DejaVuSans-72"/>
       <use x="954.203125" xlink:href="#DejaVuSans-6d"/>
       <use x="1051.615234" xlink:href="#DejaVuSans-69"/>
       <use x="1079.398438" xlink:href="#DejaVuSans-73"/>
       <use x="1131.498047" xlink:href="#DejaVuSans-5f"/>
       <use x="1181.498047" xlink:href="#DejaVuSans-30"/>
      </g>
     </g>
    </g>
    <g id="ytick_12">
     <g id="line2d_20">
      <g>
       <use style="stroke:#000000;stroke-width:0.8;" x="157.57" xlink:href="#m9ea2eb5b30" y="101.045795"/>
      </g>
     </g>
     <g id="text_21">
      <!-- Acinetobacter, Johnsonii_0 -->
      <g transform="translate(18.254375 104.845014)scale(0.1 -0.1)">
       <defs>
        <path d="M 628 4666 
L 1259 4666 
L 1259 325 
Q 1259 -519 939 -900 
Q 619 -1281 -91 -1281 
L -331 -1281 
L -331 -750 
L -134 -750 
Q 284 -750 456 -515 
Q 628 -281 628 325 
L 628 4666 
z
" id="DejaVuSans-4a" transform="scale(0.015625)"/>
       </defs>
       <use xlink:href="#DejaVuSans-41"/>
       <use x="66.658203" xlink:href="#DejaVuSans-63"/>
       <use x="121.638672" xlink:href="#DejaVuSans-69"/>
       <use x="149.421875" xlink:href="#DejaVuSans-6e"/>
       <use x="212.800781" xlink:href="#DejaVuSans-65"/>
       <use x="274.324219" xlink:href="#DejaVuSans-74"/>
       <use x="313.533203" xlink:href="#DejaVuSans-6f"/>
       <use x="374.714844" xlink:href="#DejaVuSans-62"/>
       <use x="438.191406" xlink:href="#DejaVuSans-61"/>
       <use x="499.470703" xlink:href="#DejaVuSans-63"/>
       <use x="554.451172" xlink:href="#DejaVuSans-74"/>
       <use x="593.660156" xlink:href="#DejaVuSans-65"/>
       <use x="655.183594" xlink:href="#DejaVuSans-72"/>
       <use x="696.296875" xlink:href="#DejaVuSans-2c"/>
       <use x="728.083984" xlink:href="#DejaVuSans-20"/>
       <use x="759.871094" xlink:href="#DejaVuSans-4a"/>
       <use x="789.363281" xlink:href="#DejaVuSans-6f"/>
       <use x="850.544922" xlink:href="#DejaVuSans-68"/>
       <use x="913.923828" xlink:href="#DejaVuSans-6e"/>
       <use x="977.302734" xlink:href="#DejaVuSans-73"/>
       <use x="1029.402344" xlink:href="#DejaVuSans-6f"/>
       <use x="1090.583984" xlink:href="#DejaVuSans-6e"/>
       <use x="1153.962891" xlink:href="#DejaVuSans-69"/>
       <use x="1181.746094" xlink:href="#DejaVuSans-69"/>
       <use x="1209.529297" xlink:href="#DejaVuSans-5f"/>
       <use x="1259.529297" xlink:href="#DejaVuSans-30"/>
      </g>
     </g>
    </g>
    <g id="ytick_13">
     <g id="line2d_21">
      <g>
       <use style="stroke:#000000;stroke-width:0.8;" x="157.57" xlink:href="#m9ea2eb5b30" y="77.042955"/>
      </g>
     </g>
     <g id="text_22">
      <!-- Coprococcus, Eutactus_0 -->
      <g transform="translate(25.565313 80.753892)scale(0.1 -0.1)">
       <defs>
        <path d="M 628 4666 
L 3578 4666 
L 3578 4134 
L 1259 4134 
L 1259 2753 
L 3481 2753 
L 3481 2222 
L 1259 2222 
L 1259 531 
L 3634 531 
L 3634 0 
L 628 0 
L 628 4666 
z
" id="DejaVuSans-45" transform="scale(0.015625)"/>
       </defs>
       <use xlink:href="#DejaVuSans-43"/>
       <use x="69.824219" xlink:href="#DejaVuSans-6f"/>
       <use x="131.005859" xlink:href="#DejaVuSans-70"/>
       <use x="194.482422" xlink:href="#DejaVuSans-72"/>
       <use x="233.345703" xlink:href="#DejaVuSans-6f"/>
       <use x="294.527344" xlink:href="#DejaVuSans-63"/>
       <use x="349.507812" xlink:href="#DejaVuSans-6f"/>
       <use x="410.689453" xlink:href="#DejaVuSans-63"/>
       <use x="465.669922" xlink:href="#DejaVuSans-63"/>
       <use x="520.650391" xlink:href="#DejaVuSans-75"/>
       <use x="584.029297" xlink:href="#DejaVuSans-73"/>
       <use x="636.128906" xlink:href="#DejaVuSans-2c"/>
       <use x="667.916016" xlink:href="#DejaVuSans-20"/>
       <use x="699.703125" xlink:href="#DejaVuSans-45"/>
       <use x="762.886719" xlink:href="#DejaVuSans-75"/>
       <use x="826.265625" xlink:href="#DejaVuSans-74"/>
       <use x="865.474609" xlink:href="#DejaVuSans-61"/>
       <use x="926.753906" xlink:href="#DejaVuSans-63"/>
       <use x="981.734375" xlink:href="#DejaVuSans-74"/>
       <use x="1020.943359" xlink:href="#DejaVuSans-75"/>
       <use x="1084.322266" xlink:href="#DejaVuSans-73"/>
       <use x="1136.421875" xlink:href="#DejaVuSans-5f"/>
       <use x="1186.421875" xlink:href="#DejaVuSans-30"/>
      </g>
     </g>
    </g>
   </g>
   <g id="patch_29">
    <path d="M 157.57 390.04 
L 157.57 52.08 
" style="fill:none;stroke:#000000;stroke-linecap:square;stroke-linejoin:miter;stroke-width:0.8;"/>
   </g>
   <g id="patch_30">
    <path d="M 488.485083 390.04 
L 488.485083 52.08 
" style="fill:none;stroke:#000000;stroke-linecap:square;stroke-linejoin:miter;stroke-width:0.8;"/>
   </g>
   <g id="patch_31">
    <path d="M 157.57 390.04 
L 488.485083 390.04 
" style="fill:none;stroke:#000000;stroke-linecap:square;stroke-linejoin:miter;stroke-width:0.8;"/>
   </g>
   <g id="patch_32">
    <path d="M 157.57 52.08 
L 488.485083 52.08 
" style="fill:none;stroke:#000000;stroke-linecap:square;stroke-linejoin:miter;stroke-width:0.8;"/>
   </g>
   <g id="text_23">
    <!-- Significant Spearman Correlation -->
    <g transform="translate(223.795042 46.08)scale(0.12 -0.12)">
     <use xlink:href="#DejaVuSans-53"/>
     <use x="63.476562" xlink:href="#DejaVuSans-69"/>
     <use x="91.259766" xlink:href="#DejaVuSans-67"/>
     <use x="154.736328" xlink:href="#DejaVuSans-6e"/>
     <use x="218.115234" xlink:href="#DejaVuSans-69"/>
     <use x="245.898438" xlink:href="#DejaVuSans-66"/>
     <use x="281.103516" xlink:href="#DejaVuSans-69"/>
     <use x="308.886719" xlink:href="#DejaVuSans-63"/>
     <use x="363.867188" xlink:href="#DejaVuSans-61"/>
     <use x="425.146484" xlink:href="#DejaVuSans-6e"/>
     <use x="488.525391" xlink:href="#DejaVuSans-74"/>
     <use x="527.734375" xlink:href="#DejaVuSans-20"/>
     <use x="559.521484" xlink:href="#DejaVuSans-53"/>
     <use x="622.998047" xlink:href="#DejaVuSans-70"/>
     <use x="686.474609" xlink:href="#DejaVuSans-65"/>
     <use x="747.998047" xlink:href="#DejaVuSans-61"/>
     <use x="809.277344" xlink:href="#DejaVuSans-72"/>
     <use x="848.640625" xlink:href="#DejaVuSans-6d"/>
     <use x="946.052734" xlink:href="#DejaVuSans-61"/>
     <use x="1007.332031" xlink:href="#DejaVuSans-6e"/>
     <use x="1070.710938" xlink:href="#DejaVuSans-20"/>
     <use x="1102.498047" xlink:href="#DejaVuSans-43"/>
     <use x="1172.322266" xlink:href="#DejaVuSans-6f"/>
     <use x="1233.503906" xlink:href="#DejaVuSans-72"/>
     <use x="1272.867188" xlink:href="#DejaVuSans-72"/>
     <use x="1311.730469" xlink:href="#DejaVuSans-65"/>
     <use x="1373.253906" xlink:href="#DejaVuSans-6c"/>
     <use x="1401.037109" xlink:href="#DejaVuSans-61"/>
     <use x="1462.316406" xlink:href="#DejaVuSans-74"/>
     <use x="1501.525391" xlink:href="#DejaVuSans-69"/>
     <use x="1529.308594" xlink:href="#DejaVuSans-6f"/>
     <use x="1590.490234" xlink:href="#DejaVuSans-6e"/>
    </g>
   </g>
  </g>
  <g id="axes_2">
   <g id="patch_33">
    <path d="M 522.284917 390.04 
L 853.2 390.04 
L 853.2 52.08 
L 522.284917 52.08 
z
" style="fill:#ffffff;"/>
   </g>
   <g id="patch_34">
    <path clip-path="url(#p26a634e118)" d="M 537.326511 390.04 
L 541.504732 390.04 
L 541.504732 390.04 
L 537.326511 390.04 
z
" style="fill:#008000;"/>
   </g>
   <g id="patch_35">
    <path clip-path="url(#p26a634e118)" d="M 547.772063 390.04 
L 551.950284 390.04 
L 551.950284 390.04 
L 547.772063 390.04 
z
" style="fill:#008000;"/>
   </g>
   <g id="patch_36">
    <path clip-path="url(#p26a634e118)" d="M 558.217615 390.04 
L 562.395836 390.04 
L 562.395836 378.941149 
L 558.217615 378.941149 
z
" style="fill:#008000;"/>
   </g>
   <g id="patch_37">
    <path clip-path="url(#p26a634e118)" d="M 568.663167 390.04 
L 572.841388 390.04 
L 572.841388 390.04 
L 568.663167 390.04 
z
" style="fill:#008000;"/>
   </g>
   <g id="patch_38">
    <path clip-path="url(#p26a634e118)" d="M 579.108719 390.04 
L 583.28694 390.04 
L 583.28694 378.941149 
L 579.108719 378.941149 
z
" style="fill:#008000;"/>
   </g>
   <g id="patch_39">
    <path clip-path="url(#p26a634e118)" d="M 589.554271 390.04 
L 593.732491 390.04 
L 593.732491 390.04 
L 589.554271 390.04 
z
" style="fill:#008000;"/>
   </g>
   <g id="patch_40">
    <path clip-path="url(#p26a634e118)" d="M 599.999823 390.04 
L 604.178043 390.04 
L 604.178043 378.941149 
L 599.999823 378.941149 
z
" style="fill:#008000;"/>
   </g>
   <g id="patch_41">
    <path clip-path="url(#p26a634e118)" d="M 610.445374 390.04 
L 614.623595 390.04 
L 614.623595 390.04 
L 610.445374 390.04 
z
" style="fill:#008000;"/>
   </g>
   <g id="patch_42">
    <path clip-path="url(#p26a634e118)" d="M 620.890926 390.04 
L 625.069147 390.04 
L 625.069147 356.743448 
L 620.890926 356.743448 
z
" style="fill:#008000;"/>
   </g>
   <g id="patch_43">
    <path clip-path="url(#p26a634e118)" d="M 631.336478 390.04 
L 635.514699 390.04 
L 635.514699 378.941149 
L 631.336478 378.941149 
z
" style="fill:#008000;"/>
   </g>
   <g id="patch_44">
    <path clip-path="url(#p26a634e118)" d="M 641.78203 390.04 
L 645.960251 390.04 
L 645.960251 367.842299 
L 641.78203 367.842299 
z
" style="fill:#008000;"/>
   </g>
   <g id="patch_45">
    <path clip-path="url(#p26a634e118)" d="M 652.227582 390.04 
L 656.405803 390.04 
L 656.405803 356.743448 
L 652.227582 356.743448 
z
" style="fill:#008000;"/>
   </g>
   <g id="patch_46">
    <path clip-path="url(#p26a634e118)" d="M 662.673134 390.04 
L 666.851355 390.04 
L 666.851355 356.743448 
L 662.673134 356.743448 
z
" style="fill:#008000;"/>
   </g>
   <g id="patch_47">
    <path clip-path="url(#p26a634e118)" d="M 673.118686 390.04 
L 677.296906 390.04 
L 677.296906 312.348046 
L 673.118686 312.348046 
z
" style="fill:#008000;"/>
   </g>
   <g id="patch_48">
    <path clip-path="url(#p26a634e118)" d="M 683.564238 390.04 
L 687.742458 390.04 
L 687.742458 323.446897 
L 683.564238 323.446897 
z
" style="fill:#008000;"/>
   </g>
   <g id="patch_49">
    <path clip-path="url(#p26a634e118)" d="M 694.009789 390.04 
L 698.18801 390.04 
L 698.18801 301.249195 
L 694.009789 301.249195 
z
" style="fill:#008000;"/>
   </g>
   <g id="patch_50">
    <path clip-path="url(#p26a634e118)" d="M 704.455341 390.04 
L 708.633562 390.04 
L 708.633562 212.458391 
L 704.455341 212.458391 
z
" style="fill:#008000;"/>
   </g>
   <g id="patch_51">
    <path clip-path="url(#p26a634e118)" d="M 714.900893 390.04 
L 719.079114 390.04 
L 719.079114 68.173333 
L 714.900893 68.173333 
z
" style="fill:#008000;"/>
   </g>
   <g id="patch_52">
    <path clip-path="url(#p26a634e118)" d="M 725.346445 390.04 
L 729.524666 390.04 
L 729.524666 190.26069 
L 725.346445 190.26069 
z
" style="fill:#008000;"/>
   </g>
   <g id="patch_53">
    <path clip-path="url(#p26a634e118)" d="M 735.791997 390.04 
L 739.970218 390.04 
L 739.970218 256.853793 
L 735.791997 256.853793 
z
" style="fill:#008000;"/>
   </g>
   <g id="patch_54">
    <path clip-path="url(#p26a634e118)" d="M 746.237549 390.04 
L 750.41577 390.04 
L 750.41577 256.853793 
L 746.237549 256.853793 
z
" style="fill:#008000;"/>
   </g>
   <g id="patch_55">
    <path clip-path="url(#p26a634e118)" d="M 756.683101 390.04 
L 760.861321 390.04 
L 760.861321 279.051494 
L 756.683101 279.051494 
z
" style="fill:#008000;"/>
   </g>
   <g id="patch_56">
    <path clip-path="url(#p26a634e118)" d="M 767.128653 390.04 
L 771.306873 390.04 
L 771.306873 345.644598 
L 767.128653 345.644598 
z
" style="fill:#008000;"/>
   </g>
   <g id="patch_57">
    <path clip-path="url(#p26a634e118)" d="M 777.574204 390.04 
L 781.752425 390.04 
L 781.752425 367.842299 
L 777.574204 367.842299 
z
" style="fill:#008000;"/>
   </g>
   <g id="patch_58">
    <path clip-path="url(#p26a634e118)" d="M 788.019756 390.04 
L 792.197977 390.04 
L 792.197977 356.743448 
L 788.019756 356.743448 
z
" style="fill:#008000;"/>
   </g>
   <g id="patch_59">
    <path clip-path="url(#p26a634e118)" d="M 798.465308 390.04 
L 802.643529 390.04 
L 802.643529 367.842299 
L 798.465308 367.842299 
z
" style="fill:#008000;"/>
   </g>
   <g id="patch_60">
    <path clip-path="url(#p26a634e118)" d="M 808.91086 390.04 
L 813.089081 390.04 
L 813.089081 334.545747 
L 808.91086 334.545747 
z
" style="fill:#008000;"/>
   </g>
   <g id="patch_61">
    <path clip-path="url(#p26a634e118)" d="M 819.356412 390.04 
L 823.534633 390.04 
L 823.534633 390.04 
L 819.356412 390.04 
z
" style="fill:#008000;"/>
   </g>
   <g id="patch_62">
    <path clip-path="url(#p26a634e118)" d="M 829.801964 390.04 
L 833.980185 390.04 
L 833.980185 390.04 
L 829.801964 390.04 
z
" style="fill:#008000;"/>
   </g>
   <g id="patch_63">
    <path clip-path="url(#p26a634e118)" d="M 541.504732 390.04 
L 545.682953 390.04 
L 545.682953 388.930115 
L 541.504732 388.930115 
z
" style="fill:#0000ff;"/>
   </g>
   <g id="patch_64">
    <path clip-path="url(#p26a634e118)" d="M 551.950284 390.04 
L 556.128505 390.04 
L 556.128505 388.930115 
L 551.950284 388.930115 
z
" style="fill:#0000ff;"/>
   </g>
   <g id="patch_65">
    <path clip-path="url(#p26a634e118)" d="M 562.395836 390.04 
L 566.574057 390.04 
L 566.574057 390.04 
L 562.395836 390.04 
z
" style="fill:#0000ff;"/>
   </g>
   <g id="patch_66">
    <path clip-path="url(#p26a634e118)" d="M 572.841388 390.04 
L 577.019608 390.04 
L 577.019608 388.930115 
L 572.841388 388.930115 
z
" style="fill:#0000ff;"/>
   </g>
   <g id="patch_67">
    <path clip-path="url(#p26a634e118)" d="M 583.28694 390.04 
L 587.46516 390.04 
L 587.46516 388.930115 
L 583.28694 388.930115 
z
" style="fill:#0000ff;"/>
   </g>
   <g id="patch_68">
    <path clip-path="url(#p26a634e118)" d="M 593.732491 390.04 
L 597.910712 390.04 
L 597.910712 387.82023 
L 593.732491 387.82023 
z
" style="fill:#0000ff;"/>
   </g>
   <g id="patch_69">
    <path clip-path="url(#p26a634e118)" d="M 604.178043 390.04 
L 608.356264 390.04 
L 608.356264 378.941149 
L 604.178043 378.941149 
z
" style="fill:#0000ff;"/>
   </g>
   <g id="patch_70">
    <path clip-path="url(#p26a634e118)" d="M 614.623595 390.04 
L 618.801816 390.04 
L 618.801816 375.611494 
L 614.623595 375.611494 
z
" style="fill:#0000ff;"/>
   </g>
   <g id="patch_71">
    <path clip-path="url(#p26a634e118)" d="M 625.069147 390.04 
L 629.247368 390.04 
L 629.247368 352.303908 
L 625.069147 352.303908 
z
" style="fill:#0000ff;"/>
   </g>
   <g id="patch_72">
    <path clip-path="url(#p26a634e118)" d="M 635.514699 390.04 
L 639.69292 390.04 
L 639.69292 302.35908 
L 635.514699 302.35908 
z
" style="fill:#0000ff;"/>
   </g>
   <g id="patch_73">
    <path clip-path="url(#p26a634e118)" d="M 645.960251 390.04 
L 650.138472 390.04 
L 650.138472 269.062529 
L 645.960251 269.062529 
z
" style="fill:#0000ff;"/>
   </g>
   <g id="patch_74">
    <path clip-path="url(#p26a634e118)" d="M 656.405803 390.04 
L 660.584023 390.04 
L 660.584023 250.194483 
L 656.405803 250.194483 
z
" style="fill:#0000ff;"/>
   </g>
   <g id="patch_75">
    <path clip-path="url(#p26a634e118)" d="M 666.851355 390.04 
L 671.029575 390.04 
L 671.029575 266.842759 
L 666.851355 266.842759 
z
" style="fill:#0000ff;"/>
   </g>
   <g id="patch_76">
    <path clip-path="url(#p26a634e118)" d="M 677.296906 390.04 
L 681.475127 390.04 
L 681.475127 260.183448 
L 677.296906 260.183448 
z
" style="fill:#0000ff;"/>
   </g>
   <g id="patch_77">
    <path clip-path="url(#p26a634e118)" d="M 687.742458 390.04 
L 691.920679 390.04 
L 691.920679 247.974713 
L 687.742458 247.974713 
z
" style="fill:#0000ff;"/>
   </g>
   <g id="patch_78">
    <path clip-path="url(#p26a634e118)" d="M 698.18801 390.04 
L 702.366231 390.04 
L 702.366231 216.897931 
L 698.18801 216.897931 
z
" style="fill:#0000ff;"/>
   </g>
   <g id="patch_79">
    <path clip-path="url(#p26a634e118)" d="M 708.633562 390.04 
L 712.811783 390.04 
L 712.811783 241.315402 
L 708.633562 241.315402 
z
" style="fill:#0000ff;"/>
   </g>
   <g id="patch_80">
    <path clip-path="url(#p26a634e118)" d="M 719.079114 390.04 
L 723.257335 390.04 
L 723.257335 285.710805 
L 719.079114 285.710805 
z
" style="fill:#0000ff;"/>
   </g>
   <g id="patch_81">
    <path clip-path="url(#p26a634e118)" d="M 729.524666 390.04 
L 733.702887 390.04 
L 733.702887 284.60092 
L 729.524666 284.60092 
z
" style="fill:#0000ff;"/>
   </g>
   <g id="patch_82">
    <path clip-path="url(#p26a634e118)" d="M 739.970218 390.04 
L 744.148438 390.04 
L 744.148438 312.348046 
L 739.970218 312.348046 
z
" style="fill:#0000ff;"/>
   </g>
   <g id="patch_83">
    <path clip-path="url(#p26a634e118)" d="M 750.41577 390.04 
L 754.59399 390.04 
L 754.59399 322.337011 
L 750.41577 322.337011 
z
" style="fill:#0000ff;"/>
   </g>
   <g id="patch_84">
    <path clip-path="url(#p26a634e118)" d="M 760.861321 390.04 
L 765.039542 390.04 
L 765.039542 315.677701 
L 760.861321 315.677701 
z
" style="fill:#0000ff;"/>
   </g>
   <g id="patch_85">
    <path clip-path="url(#p26a634e118)" d="M 771.306873 390.04 
L 775.485094 390.04 
L 775.485094 347.864368 
L 771.306873 347.864368 
z
" style="fill:#0000ff;"/>
   </g>
   <g id="patch_86">
    <path clip-path="url(#p26a634e118)" d="M 781.752425 390.04 
L 785.930646 390.04 
L 785.930646 364.512644 
L 781.752425 364.512644 
z
" style="fill:#0000ff;"/>
   </g>
   <g id="patch_87">
    <path clip-path="url(#p26a634e118)" d="M 792.197977 390.04 
L 796.376198 390.04 
L 796.376198 381.16092 
L 792.197977 381.16092 
z
" style="fill:#0000ff;"/>
   </g>
   <g id="patch_88">
    <path clip-path="url(#p26a634e118)" d="M 802.643529 390.04 
L 806.82175 390.04 
L 806.82175 384.490575 
L 802.643529 384.490575 
z
" style="fill:#0000ff;"/>
   </g>
   <g id="patch_89">
    <path clip-path="url(#p26a634e118)" d="M 813.089081 390.04 
L 817.267302 390.04 
L 817.267302 386.710345 
L 813.089081 386.710345 
z
" style="fill:#0000ff;"/>
   </g>
   <g id="patch_90">
    <path clip-path="url(#p26a634e118)" d="M 823.534633 390.04 
L 827.712853 390.04 
L 827.712853 388.930115 
L 823.534633 388.930115 
z
" style="fill:#0000ff;"/>
   </g>
   <g id="patch_91">
    <path clip-path="url(#p26a634e118)" d="M 833.980185 390.04 
L 838.158405 390.04 
L 838.158405 387.82023 
L 833.980185 387.82023 
z
" style="fill:#0000ff;"/>
   </g>
   <g id="matplotlib.axis_3">
    <g id="xtick_9">
     <g id="line2d_22">
      <g>
       <use style="stroke:#000000;stroke-width:0.8;" x="564.258416" xlink:href="#me70a0d13f6" y="390.04"/>
      </g>
     </g>
     <g id="text_24">
      <!-- −0.2 -->
      <g transform="translate(552.11701 404.638438)scale(0.1 -0.1)">
       <use xlink:href="#DejaVuSans-2212"/>
       <use x="83.789062" xlink:href="#DejaVuSans-30"/>
       <use x="147.412109" xlink:href="#DejaVuSans-2e"/>
       <use x="179.199219" xlink:href="#DejaVuSans-32"/>
      </g>
     </g>
    </g>
    <g id="xtick_10">
     <g id="line2d_23">
      <g>
       <use style="stroke:#000000;stroke-width:0.8;" x="637.265662" xlink:href="#me70a0d13f6" y="390.04"/>
      </g>
     </g>
     <g id="text_25">
      <!-- −0.1 -->
      <g transform="translate(625.124256 404.638438)scale(0.1 -0.1)">
       <use xlink:href="#DejaVuSans-2212"/>
       <use x="83.789062" xlink:href="#DejaVuSans-30"/>
       <use x="147.412109" xlink:href="#DejaVuSans-2e"/>
       <use x="179.199219" xlink:href="#DejaVuSans-31"/>
      </g>
     </g>
    </g>
    <g id="xtick_11">
     <g id="line2d_24">
      <g>
       <use style="stroke:#000000;stroke-width:0.8;" x="710.272907" xlink:href="#me70a0d13f6" y="390.04"/>
      </g>
     </g>
     <g id="text_26">
      <!-- 0.0 -->
      <g transform="translate(702.321345 404.638438)scale(0.1 -0.1)">
       <use xlink:href="#DejaVuSans-30"/>
       <use x="63.623047" xlink:href="#DejaVuSans-2e"/>
       <use x="95.410156" xlink:href="#DejaVuSans-30"/>
      </g>
     </g>
    </g>
    <g id="xtick_12">
     <g id="line2d_25">
      <g>
       <use style="stroke:#000000;stroke-width:0.8;" x="783.280153" xlink:href="#me70a0d13f6" y="390.04"/>
      </g>
     </g>
     <g id="text_27">
      <!-- 0.1 -->
      <g transform="translate(775.32859 404.638438)scale(0.1 -0.1)">
       <use xlink:href="#DejaVuSans-30"/>
       <use x="63.623047" xlink:href="#DejaVuSans-2e"/>
       <use x="95.410156" xlink:href="#DejaVuSans-31"/>
      </g>
     </g>
    </g>
    <g id="text_28">
     <!-- Spearman Correlation -->
     <g transform="translate(633.02449 418.316562)scale(0.1 -0.1)">
      <use xlink:href="#DejaVuSans-53"/>
      <use x="63.476562" xlink:href="#DejaVuSans-70"/>
      <use x="126.953125" xlink:href="#DejaVuSans-65"/>
      <use x="188.476562" xlink:href="#DejaVuSans-61"/>
      <use x="249.755859" xlink:href="#DejaVuSans-72"/>
      <use x="289.119141" xlink:href="#DejaVuSans-6d"/>
      <use x="386.53125" xlink:href="#DejaVuSans-61"/>
      <use x="447.810547" xlink:href="#DejaVuSans-6e"/>
      <use x="511.189453" xlink:href="#DejaVuSans-20"/>
      <use x="542.976562" xlink:href="#DejaVuSans-43"/>
      <use x="612.800781" xlink:href="#DejaVuSans-6f"/>
      <use x="673.982422" xlink:href="#DejaVuSans-72"/>
      <use x="713.345703" xlink:href="#DejaVuSans-72"/>
      <use x="752.208984" xlink:href="#DejaVuSans-65"/>
      <use x="813.732422" xlink:href="#DejaVuSans-6c"/>
      <use x="841.515625" xlink:href="#DejaVuSans-61"/>
      <use x="902.794922" xlink:href="#DejaVuSans-74"/>
      <use x="942.003906" xlink:href="#DejaVuSans-69"/>
      <use x="969.787109" xlink:href="#DejaVuSans-6f"/>
      <use x="1030.96875" xlink:href="#DejaVuSans-6e"/>
     </g>
    </g>
   </g>
   <g id="matplotlib.axis_4">
    <g id="ytick_14">
     <g id="line2d_26">
      <g>
       <use style="stroke:#000000;stroke-width:0.8;" x="522.284917" xlink:href="#m9ea2eb5b30" y="390.04"/>
      </g>
     </g>
     <g id="text_29">
      <!-- 0 -->
      <g transform="translate(508.922417 393.839219)scale(0.1 -0.1)">
       <use xlink:href="#DejaVuSans-30"/>
      </g>
     </g>
    </g>
    <g id="ytick_15">
     <g id="line2d_27">
      <g>
       <use style="stroke:#000000;stroke-width:0.8;" x="522.284917" xlink:href="#m9ea2eb5b30" y="342.71837"/>
      </g>
     </g>
     <g id="text_30">
      <!-- 2 -->
      <g transform="translate(508.922417 346.517589)scale(0.1 -0.1)">
       <use xlink:href="#DejaVuSans-32"/>
      </g>
     </g>
    </g>
    <g id="ytick_16">
     <g id="line2d_28">
      <g>
       <use style="stroke:#000000;stroke-width:0.8;" x="522.284917" xlink:href="#m9ea2eb5b30" y="295.39674"/>
      </g>
     </g>
     <g id="text_31">
      <!-- 4 -->
      <g transform="translate(508.922417 299.195959)scale(0.1 -0.1)">
       <defs>
        <path d="M 2419 4116 
L 825 1625 
L 2419 1625 
L 2419 4116 
z
M 2253 4666 
L 3047 4666 
L 3047 1625 
L 3713 1625 
L 3713 1100 
L 3047 1100 
L 3047 0 
L 2419 0 
L 2419 1100 
L 313 1100 
L 313 1709 
L 2253 4666 
z
" id="DejaVuSans-34" transform="scale(0.015625)"/>
       </defs>
       <use xlink:href="#DejaVuSans-34"/>
      </g>
     </g>
    </g>
    <g id="ytick_17">
     <g id="line2d_29">
      <g>
       <use style="stroke:#000000;stroke-width:0.8;" x="522.284917" xlink:href="#m9ea2eb5b30" y="248.07511"/>
      </g>
     </g>
     <g id="text_32">
      <!-- 6 -->
      <g transform="translate(508.922417 251.874329)scale(0.1 -0.1)">
       <defs>
        <path d="M 2113 2584 
Q 1688 2584 1439 2293 
Q 1191 2003 1191 1497 
Q 1191 994 1439 701 
Q 1688 409 2113 409 
Q 2538 409 2786 701 
Q 3034 994 3034 1497 
Q 3034 2003 2786 2293 
Q 2538 2584 2113 2584 
z
M 3366 4563 
L 3366 3988 
Q 3128 4100 2886 4159 
Q 2644 4219 2406 4219 
Q 1781 4219 1451 3797 
Q 1122 3375 1075 2522 
Q 1259 2794 1537 2939 
Q 1816 3084 2150 3084 
Q 2853 3084 3261 2657 
Q 3669 2231 3669 1497 
Q 3669 778 3244 343 
Q 2819 -91 2113 -91 
Q 1303 -91 875 529 
Q 447 1150 447 2328 
Q 447 3434 972 4092 
Q 1497 4750 2381 4750 
Q 2619 4750 2861 4703 
Q 3103 4656 3366 4563 
z
" id="DejaVuSans-36" transform="scale(0.015625)"/>
       </defs>
       <use xlink:href="#DejaVuSans-36"/>
      </g>
     </g>
    </g>
    <g id="ytick_18">
     <g id="line2d_30">
      <g>
       <use style="stroke:#000000;stroke-width:0.8;" x="522.284917" xlink:href="#m9ea2eb5b30" y="200.75348"/>
      </g>
     </g>
     <g id="text_33">
      <!-- 8 -->
      <g transform="translate(508.922417 204.552699)scale(0.1 -0.1)">
       <use xlink:href="#DejaVuSans-38"/>
      </g>
     </g>
    </g>
    <g id="ytick_19">
     <g id="line2d_31">
      <g>
       <use style="stroke:#000000;stroke-width:0.8;" x="522.284917" xlink:href="#m9ea2eb5b30" y="153.43185"/>
      </g>
     </g>
     <g id="text_34">
      <!-- 10 -->
      <g transform="translate(502.559917 157.231069)scale(0.1 -0.1)">
       <use xlink:href="#DejaVuSans-31"/>
       <use x="63.623047" xlink:href="#DejaVuSans-30"/>
      </g>
     </g>
    </g>
    <g id="ytick_20">
     <g id="line2d_32">
      <g>
       <use style="stroke:#000000;stroke-width:0.8;" x="522.284917" xlink:href="#m9ea2eb5b30" y="106.11022"/>
      </g>
     </g>
     <g id="text_35">
      <!-- 12 -->
      <g transform="translate(502.559917 109.909439)scale(0.1 -0.1)">
       <use xlink:href="#DejaVuSans-31"/>
       <use x="63.623047" xlink:href="#DejaVuSans-32"/>
      </g>
     </g>
    </g>
    <g id="ytick_21">
     <g id="line2d_33">
      <g>
       <use style="stroke:#000000;stroke-width:0.8;" x="522.284917" xlink:href="#m9ea2eb5b30" y="58.78859"/>
      </g>
     </g>
     <g id="text_36">
      <!-- 14 -->
      <g transform="translate(502.559917 62.587809)scale(0.1 -0.1)">
       <use xlink:href="#DejaVuSans-31"/>
       <use x="63.623047" xlink:href="#DejaVuSans-34"/>
      </g>
     </g>
    </g>
   </g>
   <g id="patch_92">
    <path d="M 522.284917 390.04 
L 522.284917 52.08 
" style="fill:none;stroke:#000000;stroke-linecap:square;stroke-linejoin:miter;stroke-width:0.8;"/>
   </g>
   <g id="patch_93">
    <path d="M 853.2 390.04 
L 853.2 52.08 
" style="fill:none;stroke:#000000;stroke-linecap:square;stroke-linejoin:miter;stroke-width:0.8;"/>
   </g>
   <g id="patch_94">
    <path d="M 522.284917 390.04 
L 853.2 390.04 
" style="fill:none;stroke:#000000;stroke-linecap:square;stroke-linejoin:miter;stroke-width:0.8;"/>
   </g>
   <g id="patch_95">
    <path d="M 522.284917 52.08 
L 853.2 52.08 
" style="fill:none;stroke:#000000;stroke-linecap:square;stroke-linejoin:miter;stroke-width:0.8;"/>
   </g>
   <g id="text_37">
    <!-- Histogram of real and shuffled spearman correlation -->
    <g transform="translate(530.433708 46.08)scale(0.12 -0.12)">
     <defs>
      <path d="M 628 4666 
L 1259 4666 
L 1259 2753 
L 3553 2753 
L 3553 4666 
L 4184 4666 
L 4184 0 
L 3553 0 
L 3553 2222 
L 1259 2222 
L 1259 0 
L 628 0 
L 628 4666 
z
" id="DejaVuSans-48" transform="scale(0.015625)"/>
     </defs>
     <use xlink:href="#DejaVuSans-48"/>
     <use x="75.195312" xlink:href="#DejaVuSans-69"/>
     <use x="102.978516" xlink:href="#DejaVuSans-73"/>
     <use x="155.078125" xlink:href="#DejaVuSans-74"/>
     <use x="194.287109" xlink:href="#DejaVuSans-6f"/>
     <use x="255.46875" xlink:href="#DejaVuSans-67"/>
     <use x="318.945312" xlink:href="#DejaVuSans-72"/>
     <use x="360.058594" xlink:href="#DejaVuSans-61"/>
     <use x="421.337891" xlink:href="#DejaVuSans-6d"/>
     <use x="518.75" xlink:href="#DejaVuSans-20"/>
     <use x="550.537109" xlink:href="#DejaVuSans-6f"/>
     <use x="611.71875" xlink:href="#DejaVuSans-66"/>
     <use x="646.923828" xlink:href="#DejaVuSans-20"/>
     <use x="678.710938" xlink:href="#DejaVuSans-72"/>
     <use x="717.574219" xlink:href="#DejaVuSans-65"/>
     <use x="779.097656" xlink:href="#DejaVuSans-61"/>
     <use x="840.376953" xlink:href="#DejaVuSans-6c"/>
     <use x="868.160156" xlink:href="#DejaVuSans-20"/>
     <use x="899.947266" xlink:href="#DejaVuSans-61"/>
     <use x="961.226562" xlink:href="#DejaVuSans-6e"/>
     <use x="1024.605469" xlink:href="#DejaVuSans-64"/>
     <use x="1088.082031" xlink:href="#DejaVuSans-20"/>
     <use x="1119.869141" xlink:href="#DejaVuSans-73"/>
     <use x="1171.96875" xlink:href="#DejaVuSans-68"/>
     <use x="1235.347656" xlink:href="#DejaVuSans-75"/>
     <use x="1298.726562" xlink:href="#DejaVuSans-66"/>
     <use x="1333.931641" xlink:href="#DejaVuSans-66"/>
     <use x="1369.136719" xlink:href="#DejaVuSans-6c"/>
     <use x="1396.919922" xlink:href="#DejaVuSans-65"/>
     <use x="1458.443359" xlink:href="#DejaVuSans-64"/>
     <use x="1521.919922" xlink:href="#DejaVuSans-20"/>
     <use x="1553.707031" xlink:href="#DejaVuSans-73"/>
     <use x="1605.806641" xlink:href="#DejaVuSans-70"/>
     <use x="1669.283203" xlink:href="#DejaVuSans-65"/>
     <use x="1730.806641" xlink:href="#DejaVuSans-61"/>
     <use x="1792.085938" xlink:href="#DejaVuSans-72"/>
     <use x="1831.449219" xlink:href="#DejaVuSans-6d"/>
     <use x="1928.861328" xlink:href="#DejaVuSans-61"/>
     <use x="1990.140625" xlink:href="#DejaVuSans-6e"/>
     <use x="2053.519531" xlink:href="#DejaVuSans-20"/>
     <use x="2085.306641" xlink:href="#DejaVuSans-63"/>
     <use x="2140.287109" xlink:href="#DejaVuSans-6f"/>
     <use x="2201.46875" xlink:href="#DejaVuSans-72"/>
     <use x="2240.832031" xlink:href="#DejaVuSans-72"/>
     <use x="2279.695312" xlink:href="#DejaVuSans-65"/>
     <use x="2341.21875" xlink:href="#DejaVuSans-6c"/>
     <use x="2369.001953" xlink:href="#DejaVuSans-61"/>
     <use x="2430.28125" xlink:href="#DejaVuSans-74"/>
     <use x="2469.490234" xlink:href="#DejaVuSans-69"/>
     <use x="2497.273438" xlink:href="#DejaVuSans-6f"/>
     <use x="2558.455078" xlink:href="#DejaVuSans-6e"/>
    </g>
   </g>
   <g id="legend_1">
    <g id="patch_96">
     <path d="M 737.153125 89.43625 
L 846.2 89.43625 
Q 848.2 89.43625 848.2 87.43625 
L 848.2 59.08 
Q 848.2 57.08 846.2 57.08 
L 737.153125 57.08 
Q 735.153125 57.08 735.153125 59.08 
L 735.153125 87.43625 
Q 735.153125 89.43625 737.153125 89.43625 
z
" style="fill:#ffffff;opacity:0.8;stroke:#cccccc;stroke-linejoin:miter;"/>
    </g>
    <g id="patch_97">
     <path d="M 739.153125 68.678437 
L 759.153125 68.678437 
L 759.153125 61.678437 
L 739.153125 61.678437 
z
" style="fill:#008000;"/>
    </g>
    <g id="text_38">
     <!-- Real values -->
     <g transform="translate(767.153125 68.678437)scale(0.1 -0.1)">
      <defs>
       <path d="M 2841 2188 
Q 3044 2119 3236 1894 
Q 3428 1669 3622 1275 
L 4263 0 
L 3584 0 
L 2988 1197 
Q 2756 1666 2539 1819 
Q 2322 1972 1947 1972 
L 1259 1972 
L 1259 0 
L 628 0 
L 628 4666 
L 2053 4666 
Q 2853 4666 3247 4331 
Q 3641 3997 3641 3322 
Q 3641 2881 3436 2590 
Q 3231 2300 2841 2188 
z
M 1259 4147 
L 1259 2491 
L 2053 2491 
Q 2509 2491 2742 2702 
Q 2975 2913 2975 3322 
Q 2975 3731 2742 3939 
Q 2509 4147 2053 4147 
L 1259 4147 
z
" id="DejaVuSans-52" transform="scale(0.015625)"/>
      </defs>
      <use xlink:href="#DejaVuSans-52"/>
      <use x="64.982422" xlink:href="#DejaVuSans-65"/>
      <use x="126.505859" xlink:href="#DejaVuSans-61"/>
      <use x="187.785156" xlink:href="#DejaVuSans-6c"/>
      <use x="215.568359" xlink:href="#DejaVuSans-20"/>
      <use x="247.355469" xlink:href="#DejaVuSans-76"/>
      <use x="306.535156" xlink:href="#DejaVuSans-61"/>
      <use x="367.814453" xlink:href="#DejaVuSans-6c"/>
      <use x="395.597656" xlink:href="#DejaVuSans-75"/>
      <use x="458.976562" xlink:href="#DejaVuSans-65"/>
      <use x="520.5" xlink:href="#DejaVuSans-73"/>
     </g>
    </g>
    <g id="patch_98">
     <path d="M 739.153125 83.356562 
L 759.153125 83.356562 
L 759.153125 76.356562 
L 739.153125 76.356562 
z
" style="fill:#0000ff;"/>
    </g>
    <g id="text_39">
     <!-- Shuffled values -->
     <g transform="translate(767.153125 83.356562)scale(0.1 -0.1)">
      <use xlink:href="#DejaVuSans-53"/>
      <use x="63.476562" xlink:href="#DejaVuSans-68"/>
      <use x="126.855469" xlink:href="#DejaVuSans-75"/>
      <use x="190.234375" xlink:href="#DejaVuSans-66"/>
      <use x="225.439453" xlink:href="#DejaVuSans-66"/>
      <use x="260.644531" xlink:href="#DejaVuSans-6c"/>
      <use x="288.427734" xlink:href="#DejaVuSans-65"/>
      <use x="349.951172" xlink:href="#DejaVuSans-64"/>
      <use x="413.427734" xlink:href="#DejaVuSans-20"/>
      <use x="445.214844" xlink:href="#DejaVuSans-76"/>
      <use x="504.394531" xlink:href="#DejaVuSans-61"/>
      <use x="565.673828" xlink:href="#DejaVuSans-6c"/>
      <use x="593.457031" xlink:href="#DejaVuSans-75"/>
      <use x="656.835938" xlink:href="#DejaVuSans-65"/>
      <use x="718.359375" xlink:href="#DejaVuSans-73"/>
     </g>
    </g>
   </g>
  </g>
  <g id="text_40">
   <!-- Correlation between each component and the label prognosis task -->
   <g transform="translate(165.35125 20.7975)scale(0.16 -0.16)">
    <defs>
     <path d="M 269 3500 
L 844 3500 
L 1563 769 
L 2278 3500 
L 2956 3500 
L 3675 769 
L 4391 3500 
L 4966 3500 
L 4050 0 
L 3372 0 
L 2619 2869 
L 1863 0 
L 1184 0 
L 269 3500 
z
" id="DejaVuSans-77" transform="scale(0.015625)"/>
     <path d="M 581 4863 
L 1159 4863 
L 1159 1991 
L 2875 3500 
L 3609 3500 
L 1753 1863 
L 3688 0 
L 2938 0 
L 1159 1709 
L 1159 0 
L 581 0 
L 581 4863 
z
" id="DejaVuSans-6b" transform="scale(0.015625)"/>
    </defs>
    <use xlink:href="#DejaVuSans-43"/>
    <use x="69.824219" xlink:href="#DejaVuSans-6f"/>
    <use x="131.005859" xlink:href="#DejaVuSans-72"/>
    <use x="170.369141" xlink:href="#DejaVuSans-72"/>
    <use x="209.232422" xlink:href="#DejaVuSans-65"/>
    <use x="270.755859" xlink:href="#DejaVuSans-6c"/>
    <use x="298.539062" xlink:href="#DejaVuSans-61"/>
    <use x="359.818359" xlink:href="#DejaVuSans-74"/>
    <use x="399.027344" xlink:href="#DejaVuSans-69"/>
    <use x="426.810547" xlink:href="#DejaVuSans-6f"/>
    <use x="487.992188" xlink:href="#DejaVuSans-6e"/>
    <use x="551.371094" xlink:href="#DejaVuSans-20"/>
    <use x="583.158203" xlink:href="#DejaVuSans-62"/>
    <use x="646.634766" xlink:href="#DejaVuSans-65"/>
    <use x="708.158203" xlink:href="#DejaVuSans-74"/>
    <use x="747.367188" xlink:href="#DejaVuSans-77"/>
    <use x="829.154297" xlink:href="#DejaVuSans-65"/>
    <use x="890.677734" xlink:href="#DejaVuSans-65"/>
    <use x="952.201172" xlink:href="#DejaVuSans-6e"/>
    <use x="1015.580078" xlink:href="#DejaVuSans-20"/>
    <use x="1047.367188" xlink:href="#DejaVuSans-65"/>
    <use x="1108.890625" xlink:href="#DejaVuSans-61"/>
    <use x="1170.169922" xlink:href="#DejaVuSans-63"/>
    <use x="1225.150391" xlink:href="#DejaVuSans-68"/>
    <use x="1288.529297" xlink:href="#DejaVuSans-20"/>
    <use x="1320.316406" xlink:href="#DejaVuSans-63"/>
    <use x="1375.296875" xlink:href="#DejaVuSans-6f"/>
    <use x="1436.478516" xlink:href="#DejaVuSans-6d"/>
    <use x="1533.890625" xlink:href="#DejaVuSans-70"/>
    <use x="1597.367188" xlink:href="#DejaVuSans-6f"/>
    <use x="1658.548828" xlink:href="#DejaVuSans-6e"/>
    <use x="1721.927734" xlink:href="#DejaVuSans-65"/>
    <use x="1783.451172" xlink:href="#DejaVuSans-6e"/>
    <use x="1846.830078" xlink:href="#DejaVuSans-74"/>
    <use x="1886.039062" xlink:href="#DejaVuSans-20"/>
    <use x="1917.826172" xlink:href="#DejaVuSans-61"/>
    <use x="1979.105469" xlink:href="#DejaVuSans-6e"/>
    <use x="2042.484375" xlink:href="#DejaVuSans-64"/>
    <use x="2105.960938" xlink:href="#DejaVuSans-20"/>
    <use x="2137.748047" xlink:href="#DejaVuSans-74"/>
    <use x="2176.957031" xlink:href="#DejaVuSans-68"/>
    <use x="2240.335938" xlink:href="#DejaVuSans-65"/>
    <use x="2301.859375" xlink:href="#DejaVuSans-20"/>
    <use x="2333.646484" xlink:href="#DejaVuSans-6c"/>
    <use x="2361.429688" xlink:href="#DejaVuSans-61"/>
    <use x="2422.708984" xlink:href="#DejaVuSans-62"/>
    <use x="2486.185547" xlink:href="#DejaVuSans-65"/>
    <use x="2547.708984" xlink:href="#DejaVuSans-6c"/>
    <use x="2575.492188" xlink:href="#DejaVuSans-20"/>
    <use x="2607.279297" xlink:href="#DejaVuSans-70"/>
    <use x="2670.755859" xlink:href="#DejaVuSans-72"/>
    <use x="2709.619141" xlink:href="#DejaVuSans-6f"/>
    <use x="2770.800781" xlink:href="#DejaVuSans-67"/>
    <use x="2834.277344" xlink:href="#DejaVuSans-6e"/>
    <use x="2897.65625" xlink:href="#DejaVuSans-6f"/>
    <use x="2958.837891" xlink:href="#DejaVuSans-73"/>
    <use x="3010.9375" xlink:href="#DejaVuSans-69"/>
    <use x="3038.720703" xlink:href="#DejaVuSans-73"/>
    <use x="3090.820312" xlink:href="#DejaVuSans-20"/>
    <use x="3122.607422" xlink:href="#DejaVuSans-74"/>
    <use x="3161.816406" xlink:href="#DejaVuSans-61"/>
    <use x="3223.095703" xlink:href="#DejaVuSans-73"/>
    <use x="3275.195312" xlink:href="#DejaVuSans-6b"/>
   </g>
  </g>
 </g>
 <defs>
  <clipPath id="pc323cc410f">
   <rect height="337.96" width="330.915083" x="157.57" y="52.08"/>
  </clipPath>
  <clipPath id="p26a634e118">
   <rect height="337.96" width="330.915083" x="522.284917" y="52.08"/>
  </clipPath>
 </defs>
</svg>
