<?xml version="1.0" encoding="utf-8" standalone="no"?>
<!DOCTYPE svg PUBLIC "-//W3C//DTD SVG 1.1//EN"
  "http://www.w3.org/Graphics/SVG/1.1/DTD/svg11.dtd">
<svg height="312.30825pt" version="1.1" viewBox="0 0 391.245 312.30825" width="391.245pt" xmlns="http://www.w3.org/2000/svg" xmlns:xlink="http://www.w3.org/1999/xlink">
 <metadata>
  <rdf:RDF xmlns:cc="http://creativecommons.org/ns#" xmlns:dc="http://purl.org/dc/elements/1.1/" xmlns:rdf="http://www.w3.org/1999/02/22-rdf-syntax-ns#">
   <cc:Work>
    <dc:type rdf:resource="http://purl.org/dc/dcmitype/StillImage"/>
    <dc:date>2021-07-28T12:07:26.943292</dc:date>
    <dc:format>image/svg+xml</dc:format>
    <dc:creator>
     <cc:Agent>
      <dc:title>Matplotlib v3.4.1, https://matplotlib.org/</dc:title>
     </cc:Agent>
    </dc:creator>
   </cc:Work>
  </rdf:RDF>
 </metadata>
 <defs>
  <style type="text/css">*{stroke-linecap:butt;stroke-linejoin:round;}</style>
 </defs>
 <g id="figure_1">
  <g id="patch_1">
   <path d="M 0 312.30825 
L 391.245 312.30825 
L 391.245 0 
L 0 0 
z
" style="fill:#ffffff;"/>
  </g>
  <g id="axes_1">
   <g id="patch_2">
    <path d="M 26.925 288.430125 
L 384.045 288.430125 
L 384.045 22.318125 
L 26.925 22.318125 
z
" style="fill:#ffffff;"/>
   </g>
   <g id="patch_3">
    <path clip-path="url(#p9602202f2a)" d="M 43.157727 288.430125 
L 46.404273 288.430125 
L 46.404273 241.496792 
L 43.157727 241.496792 
z
" style="fill:#0000ff;"/>
   </g>
   <g id="patch_4">
    <path clip-path="url(#p9602202f2a)" d="M 46.404273 288.430125 
L 49.650818 288.430125 
L 49.650818 241.496792 
L 46.404273 241.496792 
z
" style="fill:#0000ff;"/>
   </g>
   <g id="patch_5">
    <path clip-path="url(#p9602202f2a)" d="M 49.650818 288.430125 
L 52.897364 288.430125 
L 52.897364 128.856792 
L 49.650818 128.856792 
z
" style="fill:#0000ff;"/>
   </g>
   <g id="patch_6">
    <path clip-path="url(#p9602202f2a)" d="M 52.897364 288.430125 
L 56.143909 288.430125 
L 56.143909 34.990125 
L 52.897364 34.990125 
z
" style="fill:#0000ff;"/>
   </g>
   <g id="patch_7">
    <path clip-path="url(#p9602202f2a)" d="M 56.143909 288.430125 
L 59.390455 288.430125 
L 59.390455 63.150125 
L 56.143909 63.150125 
z
" style="fill:#0000ff;"/>
   </g>
   <g id="patch_8">
    <path clip-path="url(#p9602202f2a)" d="M 59.390455 288.430125 
L 62.637 288.430125 
L 62.637 72.536792 
L 59.390455 72.536792 
z
" style="fill:#0000ff;"/>
   </g>
   <g id="patch_9">
    <path clip-path="url(#p9602202f2a)" d="M 62.637 288.430125 
L 65.883545 288.430125 
L 65.883545 213.336792 
L 62.637 213.336792 
z
" style="fill:#0000ff;"/>
   </g>
   <g id="patch_10">
    <path clip-path="url(#p9602202f2a)" d="M 65.883545 288.430125 
L 69.130091 288.430125 
L 69.130091 128.856792 
L 65.883545 128.856792 
z
" style="fill:#0000ff;"/>
   </g>
   <g id="patch_11">
    <path clip-path="url(#p9602202f2a)" d="M 69.130091 288.430125 
L 72.376636 288.430125 
L 72.376636 194.563458 
L 69.130091 194.563458 
z
" style="fill:#0000ff;"/>
   </g>
   <g id="patch_12">
    <path clip-path="url(#p9602202f2a)" d="M 72.376636 288.430125 
L 75.623182 288.430125 
L 75.623182 175.790125 
L 72.376636 175.790125 
z
" style="fill:#0000ff;"/>
   </g>
   <g id="patch_13">
    <path clip-path="url(#p9602202f2a)" d="M 75.623182 288.430125 
L 78.869727 288.430125 
L 78.869727 157.016792 
L 75.623182 157.016792 
z
" style="fill:#0000ff;"/>
   </g>
   <g id="patch_14">
    <path clip-path="url(#p9602202f2a)" d="M 78.869727 288.430125 
L 82.116273 288.430125 
L 82.116273 175.790125 
L 78.869727 175.790125 
z
" style="fill:#0000ff;"/>
   </g>
   <g id="patch_15">
    <path clip-path="url(#p9602202f2a)" d="M 82.116273 288.430125 
L 85.362818 288.430125 
L 85.362818 241.496792 
L 82.116273 241.496792 
z
" style="fill:#0000ff;"/>
   </g>
   <g id="patch_16">
    <path clip-path="url(#p9602202f2a)" d="M 85.362818 288.430125 
L 88.609364 288.430125 
L 88.609364 260.270125 
L 85.362818 260.270125 
z
" style="fill:#0000ff;"/>
   </g>
   <g id="patch_17">
    <path clip-path="url(#p9602202f2a)" d="M 88.609364 288.430125 
L 91.855909 288.430125 
L 91.855909 222.723458 
L 88.609364 222.723458 
z
" style="fill:#0000ff;"/>
   </g>
   <g id="patch_18">
    <path clip-path="url(#p9602202f2a)" d="M 91.855909 288.430125 
L 95.102455 288.430125 
L 95.102455 250.883458 
L 91.855909 250.883458 
z
" style="fill:#0000ff;"/>
   </g>
   <g id="patch_19">
    <path clip-path="url(#p9602202f2a)" d="M 95.102455 288.430125 
L 98.349 288.430125 
L 98.349 260.270125 
L 95.102455 260.270125 
z
" style="fill:#0000ff;"/>
   </g>
   <g id="patch_20">
    <path clip-path="url(#p9602202f2a)" d="M 98.349 288.430125 
L 101.595545 288.430125 
L 101.595545 260.270125 
L 98.349 260.270125 
z
" style="fill:#0000ff;"/>
   </g>
   <g id="patch_21">
    <path clip-path="url(#p9602202f2a)" d="M 101.595545 288.430125 
L 104.842091 288.430125 
L 104.842091 203.950125 
L 101.595545 203.950125 
z
" style="fill:#0000ff;"/>
   </g>
   <g id="patch_22">
    <path clip-path="url(#p9602202f2a)" d="M 104.842091 288.430125 
L 108.088636 288.430125 
L 108.088636 213.336792 
L 104.842091 213.336792 
z
" style="fill:#0000ff;"/>
   </g>
   <g id="patch_23">
    <path clip-path="url(#p9602202f2a)" d="M 108.088636 288.430125 
L 111.335182 288.430125 
L 111.335182 269.656792 
L 108.088636 269.656792 
z
" style="fill:#0000ff;"/>
   </g>
   <g id="patch_24">
    <path clip-path="url(#p9602202f2a)" d="M 111.335182 288.430125 
L 114.581727 288.430125 
L 114.581727 279.043458 
L 111.335182 279.043458 
z
" style="fill:#0000ff;"/>
   </g>
   <g id="patch_25">
    <path clip-path="url(#p9602202f2a)" d="M 114.581727 288.430125 
L 117.828273 288.430125 
L 117.828273 269.656792 
L 114.581727 269.656792 
z
" style="fill:#0000ff;"/>
   </g>
   <g id="patch_26">
    <path clip-path="url(#p9602202f2a)" d="M 117.828273 288.430125 
L 121.074818 288.430125 
L 121.074818 269.656792 
L 117.828273 269.656792 
z
" style="fill:#0000ff;"/>
   </g>
   <g id="patch_27">
    <path clip-path="url(#p9602202f2a)" d="M 121.074818 288.430125 
L 124.321364 288.430125 
L 124.321364 279.043458 
L 121.074818 279.043458 
z
" style="fill:#0000ff;"/>
   </g>
   <g id="patch_28">
    <path clip-path="url(#p9602202f2a)" d="M 124.321364 288.430125 
L 127.567909 288.430125 
L 127.567909 250.883458 
L 124.321364 250.883458 
z
" style="fill:#0000ff;"/>
   </g>
   <g id="patch_29">
    <path clip-path="url(#p9602202f2a)" d="M 127.567909 288.430125 
L 130.814455 288.430125 
L 130.814455 279.043458 
L 127.567909 279.043458 
z
" style="fill:#0000ff;"/>
   </g>
   <g id="patch_30">
    <path clip-path="url(#p9602202f2a)" d="M 130.814455 288.430125 
L 134.061 288.430125 
L 134.061 269.656792 
L 130.814455 269.656792 
z
" style="fill:#0000ff;"/>
   </g>
   <g id="patch_31">
    <path clip-path="url(#p9602202f2a)" d="M 134.061 288.430125 
L 137.307545 288.430125 
L 137.307545 269.656792 
L 134.061 269.656792 
z
" style="fill:#0000ff;"/>
   </g>
   <g id="patch_32">
    <path clip-path="url(#p9602202f2a)" d="M 137.307545 288.430125 
L 140.554091 288.430125 
L 140.554091 260.270125 
L 137.307545 260.270125 
z
" style="fill:#0000ff;"/>
   </g>
   <g id="patch_33">
    <path clip-path="url(#p9602202f2a)" d="M 140.554091 288.430125 
L 143.800636 288.430125 
L 143.800636 232.110125 
L 140.554091 232.110125 
z
" style="fill:#0000ff;"/>
   </g>
   <g id="patch_34">
    <path clip-path="url(#p9602202f2a)" d="M 143.800636 288.430125 
L 147.047182 288.430125 
L 147.047182 288.430125 
L 143.800636 288.430125 
z
" style="fill:#0000ff;"/>
   </g>
   <g id="patch_35">
    <path clip-path="url(#p9602202f2a)" d="M 147.047182 288.430125 
L 150.293727 288.430125 
L 150.293727 269.656792 
L 147.047182 269.656792 
z
" style="fill:#0000ff;"/>
   </g>
   <g id="patch_36">
    <path clip-path="url(#p9602202f2a)" d="M 150.293727 288.430125 
L 153.540273 288.430125 
L 153.540273 288.430125 
L 150.293727 288.430125 
z
" style="fill:#0000ff;"/>
   </g>
   <g id="patch_37">
    <path clip-path="url(#p9602202f2a)" d="M 153.540273 288.430125 
L 156.786818 288.430125 
L 156.786818 288.430125 
L 153.540273 288.430125 
z
" style="fill:#0000ff;"/>
   </g>
   <g id="patch_38">
    <path clip-path="url(#p9602202f2a)" d="M 156.786818 288.430125 
L 160.033364 288.430125 
L 160.033364 288.430125 
L 156.786818 288.430125 
z
" style="fill:#0000ff;"/>
   </g>
   <g id="patch_39">
    <path clip-path="url(#p9602202f2a)" d="M 160.033364 288.430125 
L 163.279909 288.430125 
L 163.279909 279.043458 
L 160.033364 279.043458 
z
" style="fill:#0000ff;"/>
   </g>
   <g id="patch_40">
    <path clip-path="url(#p9602202f2a)" d="M 163.279909 288.430125 
L 166.526455 288.430125 
L 166.526455 269.656792 
L 163.279909 269.656792 
z
" style="fill:#0000ff;"/>
   </g>
   <g id="patch_41">
    <path clip-path="url(#p9602202f2a)" d="M 166.526455 288.430125 
L 169.773 288.430125 
L 169.773 288.430125 
L 166.526455 288.430125 
z
" style="fill:#0000ff;"/>
   </g>
   <g id="patch_42">
    <path clip-path="url(#p9602202f2a)" d="M 169.773 288.430125 
L 173.019545 288.430125 
L 173.019545 288.430125 
L 169.773 288.430125 
z
" style="fill:#0000ff;"/>
   </g>
   <g id="patch_43">
    <path clip-path="url(#p9602202f2a)" d="M 173.019545 288.430125 
L 176.266091 288.430125 
L 176.266091 288.430125 
L 173.019545 288.430125 
z
" style="fill:#0000ff;"/>
   </g>
   <g id="patch_44">
    <path clip-path="url(#p9602202f2a)" d="M 176.266091 288.430125 
L 179.512636 288.430125 
L 179.512636 288.430125 
L 176.266091 288.430125 
z
" style="fill:#0000ff;"/>
   </g>
   <g id="patch_45">
    <path clip-path="url(#p9602202f2a)" d="M 179.512636 288.430125 
L 182.759182 288.430125 
L 182.759182 288.430125 
L 179.512636 288.430125 
z
" style="fill:#0000ff;"/>
   </g>
   <g id="patch_46">
    <path clip-path="url(#p9602202f2a)" d="M 182.759182 288.430125 
L 186.005727 288.430125 
L 186.005727 288.430125 
L 182.759182 288.430125 
z
" style="fill:#0000ff;"/>
   </g>
   <g id="patch_47">
    <path clip-path="url(#p9602202f2a)" d="M 186.005727 288.430125 
L 189.252273 288.430125 
L 189.252273 288.430125 
L 186.005727 288.430125 
z
" style="fill:#0000ff;"/>
   </g>
   <g id="patch_48">
    <path clip-path="url(#p9602202f2a)" d="M 189.252273 288.430125 
L 192.498818 288.430125 
L 192.498818 279.043458 
L 189.252273 279.043458 
z
" style="fill:#0000ff;"/>
   </g>
   <g id="patch_49">
    <path clip-path="url(#p9602202f2a)" d="M 192.498818 288.430125 
L 195.745364 288.430125 
L 195.745364 288.430125 
L 192.498818 288.430125 
z
" style="fill:#0000ff;"/>
   </g>
   <g id="patch_50">
    <path clip-path="url(#p9602202f2a)" d="M 195.745364 288.430125 
L 198.991909 288.430125 
L 198.991909 288.430125 
L 195.745364 288.430125 
z
" style="fill:#0000ff;"/>
   </g>
   <g id="patch_51">
    <path clip-path="url(#p9602202f2a)" d="M 198.991909 288.430125 
L 202.238455 288.430125 
L 202.238455 288.430125 
L 198.991909 288.430125 
z
" style="fill:#0000ff;"/>
   </g>
   <g id="patch_52">
    <path clip-path="url(#p9602202f2a)" d="M 202.238455 288.430125 
L 205.485 288.430125 
L 205.485 288.430125 
L 202.238455 288.430125 
z
" style="fill:#0000ff;"/>
   </g>
   <g id="patch_53">
    <path clip-path="url(#p9602202f2a)" d="M 205.485 288.430125 
L 208.731545 288.430125 
L 208.731545 288.430125 
L 205.485 288.430125 
z
" style="fill:#0000ff;"/>
   </g>
   <g id="patch_54">
    <path clip-path="url(#p9602202f2a)" d="M 208.731545 288.430125 
L 211.978091 288.430125 
L 211.978091 288.430125 
L 208.731545 288.430125 
z
" style="fill:#0000ff;"/>
   </g>
   <g id="patch_55">
    <path clip-path="url(#p9602202f2a)" d="M 211.978091 288.430125 
L 215.224636 288.430125 
L 215.224636 279.043458 
L 211.978091 279.043458 
z
" style="fill:#0000ff;"/>
   </g>
   <g id="patch_56">
    <path clip-path="url(#p9602202f2a)" d="M 215.224636 288.430125 
L 218.471182 288.430125 
L 218.471182 288.430125 
L 215.224636 288.430125 
z
" style="fill:#0000ff;"/>
   </g>
   <g id="patch_57">
    <path clip-path="url(#p9602202f2a)" d="M 218.471182 288.430125 
L 221.717727 288.430125 
L 221.717727 288.430125 
L 218.471182 288.430125 
z
" style="fill:#0000ff;"/>
   </g>
   <g id="patch_58">
    <path clip-path="url(#p9602202f2a)" d="M 221.717727 288.430125 
L 224.964273 288.430125 
L 224.964273 279.043458 
L 221.717727 279.043458 
z
" style="fill:#0000ff;"/>
   </g>
   <g id="patch_59">
    <path clip-path="url(#p9602202f2a)" d="M 224.964273 288.430125 
L 228.210818 288.430125 
L 228.210818 288.430125 
L 224.964273 288.430125 
z
" style="fill:#0000ff;"/>
   </g>
   <g id="patch_60">
    <path clip-path="url(#p9602202f2a)" d="M 228.210818 288.430125 
L 231.457364 288.430125 
L 231.457364 279.043458 
L 228.210818 279.043458 
z
" style="fill:#0000ff;"/>
   </g>
   <g id="patch_61">
    <path clip-path="url(#p9602202f2a)" d="M 231.457364 288.430125 
L 234.703909 288.430125 
L 234.703909 288.430125 
L 231.457364 288.430125 
z
" style="fill:#0000ff;"/>
   </g>
   <g id="patch_62">
    <path clip-path="url(#p9602202f2a)" d="M 234.703909 288.430125 
L 237.950455 288.430125 
L 237.950455 288.430125 
L 234.703909 288.430125 
z
" style="fill:#0000ff;"/>
   </g>
   <g id="patch_63">
    <path clip-path="url(#p9602202f2a)" d="M 237.950455 288.430125 
L 241.197 288.430125 
L 241.197 279.043458 
L 237.950455 279.043458 
z
" style="fill:#0000ff;"/>
   </g>
   <g id="patch_64">
    <path clip-path="url(#p9602202f2a)" d="M 241.197 288.430125 
L 244.443545 288.430125 
L 244.443545 288.430125 
L 241.197 288.430125 
z
" style="fill:#0000ff;"/>
   </g>
   <g id="patch_65">
    <path clip-path="url(#p9602202f2a)" d="M 244.443545 288.430125 
L 247.690091 288.430125 
L 247.690091 288.430125 
L 244.443545 288.430125 
z
" style="fill:#0000ff;"/>
   </g>
   <g id="patch_66">
    <path clip-path="url(#p9602202f2a)" d="M 247.690091 288.430125 
L 250.936636 288.430125 
L 250.936636 288.430125 
L 247.690091 288.430125 
z
" style="fill:#0000ff;"/>
   </g>
   <g id="patch_67">
    <path clip-path="url(#p9602202f2a)" d="M 250.936636 288.430125 
L 254.183182 288.430125 
L 254.183182 288.430125 
L 250.936636 288.430125 
z
" style="fill:#0000ff;"/>
   </g>
   <g id="patch_68">
    <path clip-path="url(#p9602202f2a)" d="M 254.183182 288.430125 
L 257.429727 288.430125 
L 257.429727 288.430125 
L 254.183182 288.430125 
z
" style="fill:#0000ff;"/>
   </g>
   <g id="patch_69">
    <path clip-path="url(#p9602202f2a)" d="M 257.429727 288.430125 
L 260.676273 288.430125 
L 260.676273 288.430125 
L 257.429727 288.430125 
z
" style="fill:#0000ff;"/>
   </g>
   <g id="patch_70">
    <path clip-path="url(#p9602202f2a)" d="M 260.676273 288.430125 
L 263.922818 288.430125 
L 263.922818 288.430125 
L 260.676273 288.430125 
z
" style="fill:#0000ff;"/>
   </g>
   <g id="patch_71">
    <path clip-path="url(#p9602202f2a)" d="M 263.922818 288.430125 
L 267.169364 288.430125 
L 267.169364 288.430125 
L 263.922818 288.430125 
z
" style="fill:#0000ff;"/>
   </g>
   <g id="patch_72">
    <path clip-path="url(#p9602202f2a)" d="M 267.169364 288.430125 
L 270.415909 288.430125 
L 270.415909 288.430125 
L 267.169364 288.430125 
z
" style="fill:#0000ff;"/>
   </g>
   <g id="patch_73">
    <path clip-path="url(#p9602202f2a)" d="M 270.415909 288.430125 
L 273.662455 288.430125 
L 273.662455 288.430125 
L 270.415909 288.430125 
z
" style="fill:#0000ff;"/>
   </g>
   <g id="patch_74">
    <path clip-path="url(#p9602202f2a)" d="M 273.662455 288.430125 
L 276.909 288.430125 
L 276.909 288.430125 
L 273.662455 288.430125 
z
" style="fill:#0000ff;"/>
   </g>
   <g id="patch_75">
    <path clip-path="url(#p9602202f2a)" d="M 276.909 288.430125 
L 280.155545 288.430125 
L 280.155545 288.430125 
L 276.909 288.430125 
z
" style="fill:#0000ff;"/>
   </g>
   <g id="patch_76">
    <path clip-path="url(#p9602202f2a)" d="M 280.155545 288.430125 
L 283.402091 288.430125 
L 283.402091 288.430125 
L 280.155545 288.430125 
z
" style="fill:#0000ff;"/>
   </g>
   <g id="patch_77">
    <path clip-path="url(#p9602202f2a)" d="M 283.402091 288.430125 
L 286.648636 288.430125 
L 286.648636 288.430125 
L 283.402091 288.430125 
z
" style="fill:#0000ff;"/>
   </g>
   <g id="patch_78">
    <path clip-path="url(#p9602202f2a)" d="M 286.648636 288.430125 
L 289.895182 288.430125 
L 289.895182 288.430125 
L 286.648636 288.430125 
z
" style="fill:#0000ff;"/>
   </g>
   <g id="patch_79">
    <path clip-path="url(#p9602202f2a)" d="M 289.895182 288.430125 
L 293.141727 288.430125 
L 293.141727 288.430125 
L 289.895182 288.430125 
z
" style="fill:#0000ff;"/>
   </g>
   <g id="patch_80">
    <path clip-path="url(#p9602202f2a)" d="M 293.141727 288.430125 
L 296.388273 288.430125 
L 296.388273 288.430125 
L 293.141727 288.430125 
z
" style="fill:#0000ff;"/>
   </g>
   <g id="patch_81">
    <path clip-path="url(#p9602202f2a)" d="M 296.388273 288.430125 
L 299.634818 288.430125 
L 299.634818 288.430125 
L 296.388273 288.430125 
z
" style="fill:#0000ff;"/>
   </g>
   <g id="patch_82">
    <path clip-path="url(#p9602202f2a)" d="M 299.634818 288.430125 
L 302.881364 288.430125 
L 302.881364 288.430125 
L 299.634818 288.430125 
z
" style="fill:#0000ff;"/>
   </g>
   <g id="patch_83">
    <path clip-path="url(#p9602202f2a)" d="M 302.881364 288.430125 
L 306.127909 288.430125 
L 306.127909 288.430125 
L 302.881364 288.430125 
z
" style="fill:#0000ff;"/>
   </g>
   <g id="patch_84">
    <path clip-path="url(#p9602202f2a)" d="M 306.127909 288.430125 
L 309.374455 288.430125 
L 309.374455 288.430125 
L 306.127909 288.430125 
z
" style="fill:#0000ff;"/>
   </g>
   <g id="patch_85">
    <path clip-path="url(#p9602202f2a)" d="M 309.374455 288.430125 
L 312.621 288.430125 
L 312.621 288.430125 
L 309.374455 288.430125 
z
" style="fill:#0000ff;"/>
   </g>
   <g id="patch_86">
    <path clip-path="url(#p9602202f2a)" d="M 312.621 288.430125 
L 315.867545 288.430125 
L 315.867545 288.430125 
L 312.621 288.430125 
z
" style="fill:#0000ff;"/>
   </g>
   <g id="patch_87">
    <path clip-path="url(#p9602202f2a)" d="M 315.867545 288.430125 
L 319.114091 288.430125 
L 319.114091 288.430125 
L 315.867545 288.430125 
z
" style="fill:#0000ff;"/>
   </g>
   <g id="patch_88">
    <path clip-path="url(#p9602202f2a)" d="M 319.114091 288.430125 
L 322.360636 288.430125 
L 322.360636 288.430125 
L 319.114091 288.430125 
z
" style="fill:#0000ff;"/>
   </g>
   <g id="patch_89">
    <path clip-path="url(#p9602202f2a)" d="M 322.360636 288.430125 
L 325.607182 288.430125 
L 325.607182 288.430125 
L 322.360636 288.430125 
z
" style="fill:#0000ff;"/>
   </g>
   <g id="patch_90">
    <path clip-path="url(#p9602202f2a)" d="M 325.607182 288.430125 
L 328.853727 288.430125 
L 328.853727 288.430125 
L 325.607182 288.430125 
z
" style="fill:#0000ff;"/>
   </g>
   <g id="patch_91">
    <path clip-path="url(#p9602202f2a)" d="M 328.853727 288.430125 
L 332.100273 288.430125 
L 332.100273 288.430125 
L 328.853727 288.430125 
z
" style="fill:#0000ff;"/>
   </g>
   <g id="patch_92">
    <path clip-path="url(#p9602202f2a)" d="M 332.100273 288.430125 
L 335.346818 288.430125 
L 335.346818 288.430125 
L 332.100273 288.430125 
z
" style="fill:#0000ff;"/>
   </g>
   <g id="patch_93">
    <path clip-path="url(#p9602202f2a)" d="M 335.346818 288.430125 
L 338.593364 288.430125 
L 338.593364 288.430125 
L 335.346818 288.430125 
z
" style="fill:#0000ff;"/>
   </g>
   <g id="patch_94">
    <path clip-path="url(#p9602202f2a)" d="M 338.593364 288.430125 
L 341.839909 288.430125 
L 341.839909 269.656792 
L 338.593364 269.656792 
z
" style="fill:#0000ff;"/>
   </g>
   <g id="patch_95">
    <path clip-path="url(#p9602202f2a)" d="M 341.839909 288.430125 
L 345.086455 288.430125 
L 345.086455 288.430125 
L 341.839909 288.430125 
z
" style="fill:#0000ff;"/>
   </g>
   <g id="patch_96">
    <path clip-path="url(#p9602202f2a)" d="M 345.086455 288.430125 
L 348.333 288.430125 
L 348.333 279.043458 
L 345.086455 279.043458 
z
" style="fill:#0000ff;"/>
   </g>
   <g id="patch_97">
    <path clip-path="url(#p9602202f2a)" d="M 348.333 288.430125 
L 351.579545 288.430125 
L 351.579545 288.430125 
L 348.333 288.430125 
z
" style="fill:#0000ff;"/>
   </g>
   <g id="patch_98">
    <path clip-path="url(#p9602202f2a)" d="M 351.579545 288.430125 
L 354.826091 288.430125 
L 354.826091 288.430125 
L 351.579545 288.430125 
z
" style="fill:#0000ff;"/>
   </g>
   <g id="patch_99">
    <path clip-path="url(#p9602202f2a)" d="M 354.826091 288.430125 
L 358.072636 288.430125 
L 358.072636 288.430125 
L 354.826091 288.430125 
z
" style="fill:#0000ff;"/>
   </g>
   <g id="patch_100">
    <path clip-path="url(#p9602202f2a)" d="M 358.072636 288.430125 
L 361.319182 288.430125 
L 361.319182 288.430125 
L 358.072636 288.430125 
z
" style="fill:#0000ff;"/>
   </g>
   <g id="patch_101">
    <path clip-path="url(#p9602202f2a)" d="M 361.319182 288.430125 
L 364.565727 288.430125 
L 364.565727 288.430125 
L 361.319182 288.430125 
z
" style="fill:#0000ff;"/>
   </g>
   <g id="patch_102">
    <path clip-path="url(#p9602202f2a)" d="M 364.565727 288.430125 
L 367.812273 288.430125 
L 367.812273 279.043458 
L 364.565727 279.043458 
z
" style="fill:#0000ff;"/>
   </g>
   <g id="matplotlib.axis_1">
    <g id="xtick_1">
     <g id="line2d_1">
      <path clip-path="url(#p9602202f2a)" d="M 41.071235 288.430125 
L 41.071235 22.318125 
" style="fill:none;stroke:#b0b0b0;stroke-linecap:square;stroke-width:0.8;"/>
     </g>
     <g id="line2d_2">
      <defs>
       <path d="M 0 0 
L 0 3.5 
" id="m22c0274880" style="stroke:#000000;stroke-width:0.8;"/>
      </defs>
      <g>
       <use style="stroke:#000000;stroke-width:0.8;" x="41.071235" xlink:href="#m22c0274880" y="288.430125"/>
      </g>
     </g>
     <g id="text_1">
      <!-- 0 -->
      <g transform="translate(37.889985 303.028562)scale(0.1 -0.1)">
       <defs>
        <path d="M 2034 4250 
Q 1547 4250 1301 3770 
Q 1056 3291 1056 2328 
Q 1056 1369 1301 889 
Q 1547 409 2034 409 
Q 2525 409 2770 889 
Q 3016 1369 3016 2328 
Q 3016 3291 2770 3770 
Q 2525 4250 2034 4250 
z
M 2034 4750 
Q 2819 4750 3233 4129 
Q 3647 3509 3647 2328 
Q 3647 1150 3233 529 
Q 2819 -91 2034 -91 
Q 1250 -91 836 529 
Q 422 1150 422 2328 
Q 422 3509 836 4129 
Q 1250 4750 2034 4750 
z
" id="DejaVuSans-30" transform="scale(0.015625)"/>
       </defs>
       <use xlink:href="#DejaVuSans-30"/>
      </g>
     </g>
    </g>
    <g id="xtick_2">
     <g id="line2d_3">
      <path clip-path="url(#p9602202f2a)" d="M 116.896526 288.430125 
L 116.896526 22.318125 
" style="fill:none;stroke:#b0b0b0;stroke-linecap:square;stroke-width:0.8;"/>
     </g>
     <g id="line2d_4">
      <g>
       <use style="stroke:#000000;stroke-width:0.8;" x="116.896526" xlink:href="#m22c0274880" y="288.430125"/>
      </g>
     </g>
     <g id="text_2">
      <!-- 5000 -->
      <g transform="translate(104.171526 303.028562)scale(0.1 -0.1)">
       <defs>
        <path d="M 691 4666 
L 3169 4666 
L 3169 4134 
L 1269 4134 
L 1269 2991 
Q 1406 3038 1543 3061 
Q 1681 3084 1819 3084 
Q 2600 3084 3056 2656 
Q 3513 2228 3513 1497 
Q 3513 744 3044 326 
Q 2575 -91 1722 -91 
Q 1428 -91 1123 -41 
Q 819 9 494 109 
L 494 744 
Q 775 591 1075 516 
Q 1375 441 1709 441 
Q 2250 441 2565 725 
Q 2881 1009 2881 1497 
Q 2881 1984 2565 2268 
Q 2250 2553 1709 2553 
Q 1456 2553 1204 2497 
Q 953 2441 691 2322 
L 691 4666 
z
" id="DejaVuSans-35" transform="scale(0.015625)"/>
       </defs>
       <use xlink:href="#DejaVuSans-35"/>
       <use x="63.623047" xlink:href="#DejaVuSans-30"/>
       <use x="127.246094" xlink:href="#DejaVuSans-30"/>
       <use x="190.869141" xlink:href="#DejaVuSans-30"/>
      </g>
     </g>
    </g>
    <g id="xtick_3">
     <g id="line2d_5">
      <path clip-path="url(#p9602202f2a)" d="M 192.721817 288.430125 
L 192.721817 22.318125 
" style="fill:none;stroke:#b0b0b0;stroke-linecap:square;stroke-width:0.8;"/>
     </g>
     <g id="line2d_6">
      <g>
       <use style="stroke:#000000;stroke-width:0.8;" x="192.721817" xlink:href="#m22c0274880" y="288.430125"/>
      </g>
     </g>
     <g id="text_3">
      <!-- 10000 -->
      <g transform="translate(176.815567 303.028562)scale(0.1 -0.1)">
       <defs>
        <path d="M 794 531 
L 1825 531 
L 1825 4091 
L 703 3866 
L 703 4441 
L 1819 4666 
L 2450 4666 
L 2450 531 
L 3481 531 
L 3481 0 
L 794 0 
L 794 531 
z
" id="DejaVuSans-31" transform="scale(0.015625)"/>
       </defs>
       <use xlink:href="#DejaVuSans-31"/>
       <use x="63.623047" xlink:href="#DejaVuSans-30"/>
       <use x="127.246094" xlink:href="#DejaVuSans-30"/>
       <use x="190.869141" xlink:href="#DejaVuSans-30"/>
       <use x="254.492188" xlink:href="#DejaVuSans-30"/>
      </g>
     </g>
    </g>
    <g id="xtick_4">
     <g id="line2d_7">
      <path clip-path="url(#p9602202f2a)" d="M 268.547108 288.430125 
L 268.547108 22.318125 
" style="fill:none;stroke:#b0b0b0;stroke-linecap:square;stroke-width:0.8;"/>
     </g>
     <g id="line2d_8">
      <g>
       <use style="stroke:#000000;stroke-width:0.8;" x="268.547108" xlink:href="#m22c0274880" y="288.430125"/>
      </g>
     </g>
     <g id="text_4">
      <!-- 15000 -->
      <g transform="translate(252.640858 303.028562)scale(0.1 -0.1)">
       <use xlink:href="#DejaVuSans-31"/>
       <use x="63.623047" xlink:href="#DejaVuSans-35"/>
       <use x="127.246094" xlink:href="#DejaVuSans-30"/>
       <use x="190.869141" xlink:href="#DejaVuSans-30"/>
       <use x="254.492188" xlink:href="#DejaVuSans-30"/>
      </g>
     </g>
    </g>
    <g id="xtick_5">
     <g id="line2d_9">
      <path clip-path="url(#p9602202f2a)" d="M 344.372399 288.430125 
L 344.372399 22.318125 
" style="fill:none;stroke:#b0b0b0;stroke-linecap:square;stroke-width:0.8;"/>
     </g>
     <g id="line2d_10">
      <g>
       <use style="stroke:#000000;stroke-width:0.8;" x="344.372399" xlink:href="#m22c0274880" y="288.430125"/>
      </g>
     </g>
     <g id="text_5">
      <!-- 20000 -->
      <g transform="translate(328.466149 303.028562)scale(0.1 -0.1)">
       <defs>
        <path d="M 1228 531 
L 3431 531 
L 3431 0 
L 469 0 
L 469 531 
Q 828 903 1448 1529 
Q 2069 2156 2228 2338 
Q 2531 2678 2651 2914 
Q 2772 3150 2772 3378 
Q 2772 3750 2511 3984 
Q 2250 4219 1831 4219 
Q 1534 4219 1204 4116 
Q 875 4013 500 3803 
L 500 4441 
Q 881 4594 1212 4672 
Q 1544 4750 1819 4750 
Q 2544 4750 2975 4387 
Q 3406 4025 3406 3419 
Q 3406 3131 3298 2873 
Q 3191 2616 2906 2266 
Q 2828 2175 2409 1742 
Q 1991 1309 1228 531 
z
" id="DejaVuSans-32" transform="scale(0.015625)"/>
       </defs>
       <use xlink:href="#DejaVuSans-32"/>
       <use x="63.623047" xlink:href="#DejaVuSans-30"/>
       <use x="127.246094" xlink:href="#DejaVuSans-30"/>
       <use x="190.869141" xlink:href="#DejaVuSans-30"/>
       <use x="254.492188" xlink:href="#DejaVuSans-30"/>
      </g>
     </g>
    </g>
   </g>
   <g id="matplotlib.axis_2">
    <g id="ytick_1">
     <g id="line2d_11">
      <path clip-path="url(#p9602202f2a)" d="M 26.925 288.430125 
L 384.045 288.430125 
" style="fill:none;stroke:#b0b0b0;stroke-linecap:square;stroke-width:0.8;"/>
     </g>
     <g id="line2d_12">
      <defs>
       <path d="M 0 0 
L -3.5 0 
" id="m165c6a7818" style="stroke:#000000;stroke-width:0.8;"/>
      </defs>
      <g>
       <use style="stroke:#000000;stroke-width:0.8;" x="26.925" xlink:href="#m165c6a7818" y="288.430125"/>
      </g>
     </g>
     <g id="text_6">
      <!-- 0 -->
      <g transform="translate(13.5625 292.229344)scale(0.1 -0.1)">
       <use xlink:href="#DejaVuSans-30"/>
      </g>
     </g>
    </g>
    <g id="ytick_2">
     <g id="line2d_13">
      <path clip-path="url(#p9602202f2a)" d="M 26.925 241.496792 
L 384.045 241.496792 
" style="fill:none;stroke:#b0b0b0;stroke-linecap:square;stroke-width:0.8;"/>
     </g>
     <g id="line2d_14">
      <g>
       <use style="stroke:#000000;stroke-width:0.8;" x="26.925" xlink:href="#m165c6a7818" y="241.496792"/>
      </g>
     </g>
     <g id="text_7">
      <!-- 5 -->
      <g transform="translate(13.5625 245.29601)scale(0.1 -0.1)">
       <use xlink:href="#DejaVuSans-35"/>
      </g>
     </g>
    </g>
    <g id="ytick_3">
     <g id="line2d_15">
      <path clip-path="url(#p9602202f2a)" d="M 26.925 194.563458 
L 384.045 194.563458 
" style="fill:none;stroke:#b0b0b0;stroke-linecap:square;stroke-width:0.8;"/>
     </g>
     <g id="line2d_16">
      <g>
       <use style="stroke:#000000;stroke-width:0.8;" x="26.925" xlink:href="#m165c6a7818" y="194.563458"/>
      </g>
     </g>
     <g id="text_8">
      <!-- 10 -->
      <g transform="translate(7.2 198.362677)scale(0.1 -0.1)">
       <use xlink:href="#DejaVuSans-31"/>
       <use x="63.623047" xlink:href="#DejaVuSans-30"/>
      </g>
     </g>
    </g>
    <g id="ytick_4">
     <g id="line2d_17">
      <path clip-path="url(#p9602202f2a)" d="M 26.925 147.630125 
L 384.045 147.630125 
" style="fill:none;stroke:#b0b0b0;stroke-linecap:square;stroke-width:0.8;"/>
     </g>
     <g id="line2d_18">
      <g>
       <use style="stroke:#000000;stroke-width:0.8;" x="26.925" xlink:href="#m165c6a7818" y="147.630125"/>
      </g>
     </g>
     <g id="text_9">
      <!-- 15 -->
      <g transform="translate(7.2 151.429344)scale(0.1 -0.1)">
       <use xlink:href="#DejaVuSans-31"/>
       <use x="63.623047" xlink:href="#DejaVuSans-35"/>
      </g>
     </g>
    </g>
    <g id="ytick_5">
     <g id="line2d_19">
      <path clip-path="url(#p9602202f2a)" d="M 26.925 100.696792 
L 384.045 100.696792 
" style="fill:none;stroke:#b0b0b0;stroke-linecap:square;stroke-width:0.8;"/>
     </g>
     <g id="line2d_20">
      <g>
       <use style="stroke:#000000;stroke-width:0.8;" x="26.925" xlink:href="#m165c6a7818" y="100.696792"/>
      </g>
     </g>
     <g id="text_10">
      <!-- 20 -->
      <g transform="translate(7.2 104.49601)scale(0.1 -0.1)">
       <use xlink:href="#DejaVuSans-32"/>
       <use x="63.623047" xlink:href="#DejaVuSans-30"/>
      </g>
     </g>
    </g>
    <g id="ytick_6">
     <g id="line2d_21">
      <path clip-path="url(#p9602202f2a)" d="M 26.925 53.763458 
L 384.045 53.763458 
" style="fill:none;stroke:#b0b0b0;stroke-linecap:square;stroke-width:0.8;"/>
     </g>
     <g id="line2d_22">
      <g>
       <use style="stroke:#000000;stroke-width:0.8;" x="26.925" xlink:href="#m165c6a7818" y="53.763458"/>
      </g>
     </g>
     <g id="text_11">
      <!-- 25 -->
      <g transform="translate(7.2 57.562677)scale(0.1 -0.1)">
       <use xlink:href="#DejaVuSans-32"/>
       <use x="63.623047" xlink:href="#DejaVuSans-35"/>
      </g>
     </g>
    </g>
   </g>
   <g id="patch_103">
    <path d="M 26.925 288.430125 
L 26.925 22.318125 
" style="fill:none;stroke:#000000;stroke-linecap:square;stroke-linejoin:miter;stroke-width:0.8;"/>
   </g>
   <g id="patch_104">
    <path d="M 384.045 288.430125 
L 384.045 22.318125 
" style="fill:none;stroke:#000000;stroke-linecap:square;stroke-linejoin:miter;stroke-width:0.8;"/>
   </g>
   <g id="patch_105">
    <path d="M 26.925 288.430125 
L 384.045 288.430125 
" style="fill:none;stroke:#000000;stroke-linecap:square;stroke-linejoin:miter;stroke-width:0.8;"/>
   </g>
   <g id="patch_106">
    <path d="M 26.925 22.318125 
L 384.045 22.318125 
" style="fill:none;stroke:#000000;stroke-linecap:square;stroke-linejoin:miter;stroke-width:0.8;"/>
   </g>
   <g id="text_12">
    <!-- Density of samples -->
    <g transform="translate(148.137188 16.318125)scale(0.12 -0.12)">
     <defs>
      <path d="M 1259 4147 
L 1259 519 
L 2022 519 
Q 2988 519 3436 956 
Q 3884 1394 3884 2338 
Q 3884 3275 3436 3711 
Q 2988 4147 2022 4147 
L 1259 4147 
z
M 628 4666 
L 1925 4666 
Q 3281 4666 3915 4102 
Q 4550 3538 4550 2338 
Q 4550 1131 3912 565 
Q 3275 0 1925 0 
L 628 0 
L 628 4666 
z
" id="DejaVuSans-44" transform="scale(0.015625)"/>
      <path d="M 3597 1894 
L 3597 1613 
L 953 1613 
Q 991 1019 1311 708 
Q 1631 397 2203 397 
Q 2534 397 2845 478 
Q 3156 559 3463 722 
L 3463 178 
Q 3153 47 2828 -22 
Q 2503 -91 2169 -91 
Q 1331 -91 842 396 
Q 353 884 353 1716 
Q 353 2575 817 3079 
Q 1281 3584 2069 3584 
Q 2775 3584 3186 3129 
Q 3597 2675 3597 1894 
z
M 3022 2063 
Q 3016 2534 2758 2815 
Q 2500 3097 2075 3097 
Q 1594 3097 1305 2825 
Q 1016 2553 972 2059 
L 3022 2063 
z
" id="DejaVuSans-65" transform="scale(0.015625)"/>
      <path d="M 3513 2113 
L 3513 0 
L 2938 0 
L 2938 2094 
Q 2938 2591 2744 2837 
Q 2550 3084 2163 3084 
Q 1697 3084 1428 2787 
Q 1159 2491 1159 1978 
L 1159 0 
L 581 0 
L 581 3500 
L 1159 3500 
L 1159 2956 
Q 1366 3272 1645 3428 
Q 1925 3584 2291 3584 
Q 2894 3584 3203 3211 
Q 3513 2838 3513 2113 
z
" id="DejaVuSans-6e" transform="scale(0.015625)"/>
      <path d="M 2834 3397 
L 2834 2853 
Q 2591 2978 2328 3040 
Q 2066 3103 1784 3103 
Q 1356 3103 1142 2972 
Q 928 2841 928 2578 
Q 928 2378 1081 2264 
Q 1234 2150 1697 2047 
L 1894 2003 
Q 2506 1872 2764 1633 
Q 3022 1394 3022 966 
Q 3022 478 2636 193 
Q 2250 -91 1575 -91 
Q 1294 -91 989 -36 
Q 684 19 347 128 
L 347 722 
Q 666 556 975 473 
Q 1284 391 1588 391 
Q 1994 391 2212 530 
Q 2431 669 2431 922 
Q 2431 1156 2273 1281 
Q 2116 1406 1581 1522 
L 1381 1569 
Q 847 1681 609 1914 
Q 372 2147 372 2553 
Q 372 3047 722 3315 
Q 1072 3584 1716 3584 
Q 2034 3584 2315 3537 
Q 2597 3491 2834 3397 
z
" id="DejaVuSans-73" transform="scale(0.015625)"/>
      <path d="M 603 3500 
L 1178 3500 
L 1178 0 
L 603 0 
L 603 3500 
z
M 603 4863 
L 1178 4863 
L 1178 4134 
L 603 4134 
L 603 4863 
z
" id="DejaVuSans-69" transform="scale(0.015625)"/>
      <path d="M 1172 4494 
L 1172 3500 
L 2356 3500 
L 2356 3053 
L 1172 3053 
L 1172 1153 
Q 1172 725 1289 603 
Q 1406 481 1766 481 
L 2356 481 
L 2356 0 
L 1766 0 
Q 1100 0 847 248 
Q 594 497 594 1153 
L 594 3053 
L 172 3053 
L 172 3500 
L 594 3500 
L 594 4494 
L 1172 4494 
z
" id="DejaVuSans-74" transform="scale(0.015625)"/>
      <path d="M 2059 -325 
Q 1816 -950 1584 -1140 
Q 1353 -1331 966 -1331 
L 506 -1331 
L 506 -850 
L 844 -850 
Q 1081 -850 1212 -737 
Q 1344 -625 1503 -206 
L 1606 56 
L 191 3500 
L 800 3500 
L 1894 763 
L 2988 3500 
L 3597 3500 
L 2059 -325 
z
" id="DejaVuSans-79" transform="scale(0.015625)"/>
      <path id="DejaVuSans-20" transform="scale(0.015625)"/>
      <path d="M 1959 3097 
Q 1497 3097 1228 2736 
Q 959 2375 959 1747 
Q 959 1119 1226 758 
Q 1494 397 1959 397 
Q 2419 397 2687 759 
Q 2956 1122 2956 1747 
Q 2956 2369 2687 2733 
Q 2419 3097 1959 3097 
z
M 1959 3584 
Q 2709 3584 3137 3096 
Q 3566 2609 3566 1747 
Q 3566 888 3137 398 
Q 2709 -91 1959 -91 
Q 1206 -91 779 398 
Q 353 888 353 1747 
Q 353 2609 779 3096 
Q 1206 3584 1959 3584 
z
" id="DejaVuSans-6f" transform="scale(0.015625)"/>
      <path d="M 2375 4863 
L 2375 4384 
L 1825 4384 
Q 1516 4384 1395 4259 
Q 1275 4134 1275 3809 
L 1275 3500 
L 2222 3500 
L 2222 3053 
L 1275 3053 
L 1275 0 
L 697 0 
L 697 3053 
L 147 3053 
L 147 3500 
L 697 3500 
L 697 3744 
Q 697 4328 969 4595 
Q 1241 4863 1831 4863 
L 2375 4863 
z
" id="DejaVuSans-66" transform="scale(0.015625)"/>
      <path d="M 2194 1759 
Q 1497 1759 1228 1600 
Q 959 1441 959 1056 
Q 959 750 1161 570 
Q 1363 391 1709 391 
Q 2188 391 2477 730 
Q 2766 1069 2766 1631 
L 2766 1759 
L 2194 1759 
z
M 3341 1997 
L 3341 0 
L 2766 0 
L 2766 531 
Q 2569 213 2275 61 
Q 1981 -91 1556 -91 
Q 1019 -91 701 211 
Q 384 513 384 1019 
Q 384 1609 779 1909 
Q 1175 2209 1959 2209 
L 2766 2209 
L 2766 2266 
Q 2766 2663 2505 2880 
Q 2244 3097 1772 3097 
Q 1472 3097 1187 3025 
Q 903 2953 641 2809 
L 641 3341 
Q 956 3463 1253 3523 
Q 1550 3584 1831 3584 
Q 2591 3584 2966 3190 
Q 3341 2797 3341 1997 
z
" id="DejaVuSans-61" transform="scale(0.015625)"/>
      <path d="M 3328 2828 
Q 3544 3216 3844 3400 
Q 4144 3584 4550 3584 
Q 5097 3584 5394 3201 
Q 5691 2819 5691 2113 
L 5691 0 
L 5113 0 
L 5113 2094 
Q 5113 2597 4934 2840 
Q 4756 3084 4391 3084 
Q 3944 3084 3684 2787 
Q 3425 2491 3425 1978 
L 3425 0 
L 2847 0 
L 2847 2094 
Q 2847 2600 2669 2842 
Q 2491 3084 2119 3084 
Q 1678 3084 1418 2786 
Q 1159 2488 1159 1978 
L 1159 0 
L 581 0 
L 581 3500 
L 1159 3500 
L 1159 2956 
Q 1356 3278 1631 3431 
Q 1906 3584 2284 3584 
Q 2666 3584 2933 3390 
Q 3200 3197 3328 2828 
z
" id="DejaVuSans-6d" transform="scale(0.015625)"/>
      <path d="M 1159 525 
L 1159 -1331 
L 581 -1331 
L 581 3500 
L 1159 3500 
L 1159 2969 
Q 1341 3281 1617 3432 
Q 1894 3584 2278 3584 
Q 2916 3584 3314 3078 
Q 3713 2572 3713 1747 
Q 3713 922 3314 415 
Q 2916 -91 2278 -91 
Q 1894 -91 1617 61 
Q 1341 213 1159 525 
z
M 3116 1747 
Q 3116 2381 2855 2742 
Q 2594 3103 2138 3103 
Q 1681 3103 1420 2742 
Q 1159 2381 1159 1747 
Q 1159 1113 1420 752 
Q 1681 391 2138 391 
Q 2594 391 2855 752 
Q 3116 1113 3116 1747 
z
" id="DejaVuSans-70" transform="scale(0.015625)"/>
      <path d="M 603 4863 
L 1178 4863 
L 1178 0 
L 603 0 
L 603 4863 
z
" id="DejaVuSans-6c" transform="scale(0.015625)"/>
     </defs>
     <use xlink:href="#DejaVuSans-44"/>
     <use x="77.001953" xlink:href="#DejaVuSans-65"/>
     <use x="138.525391" xlink:href="#DejaVuSans-6e"/>
     <use x="201.904297" xlink:href="#DejaVuSans-73"/>
     <use x="254.003906" xlink:href="#DejaVuSans-69"/>
     <use x="281.787109" xlink:href="#DejaVuSans-74"/>
     <use x="320.996094" xlink:href="#DejaVuSans-79"/>
     <use x="380.175781" xlink:href="#DejaVuSans-20"/>
     <use x="411.962891" xlink:href="#DejaVuSans-6f"/>
     <use x="473.144531" xlink:href="#DejaVuSans-66"/>
     <use x="508.349609" xlink:href="#DejaVuSans-20"/>
     <use x="540.136719" xlink:href="#DejaVuSans-73"/>
     <use x="592.236328" xlink:href="#DejaVuSans-61"/>
     <use x="653.515625" xlink:href="#DejaVuSans-6d"/>
     <use x="750.927734" xlink:href="#DejaVuSans-70"/>
     <use x="814.404297" xlink:href="#DejaVuSans-6c"/>
     <use x="842.1875" xlink:href="#DejaVuSans-65"/>
     <use x="903.710938" xlink:href="#DejaVuSans-73"/>
    </g>
   </g>
  </g>
 </g>
 <defs>
  <clipPath id="p9602202f2a">
   <rect height="266.112" width="357.12" x="26.925" y="22.318125"/>
  </clipPath>
 </defs>
</svg>
